<?xml version="1.0" encoding="UTF-8"?>
<svg xmlns="http://www.w3.org/2000/svg" version="1.1" viewBox="0 0 307 238.9">
  <!-- Generator: Adobe Illustrator 29.8.2, SVG Export Plug-In . SVG Version: 2.1.1 Build 3)  -->
  <defs>
    <style>
      .st0 {
        fill: #e12e2b;
      }

      .st1 {
        isolation: isolate;
      }

      .st2 {
        mix-blend-mode: screen;
      }
    </style>
  </defs>
  <g class="st1">
    <g id="Layer_1">
      <g class="st2">
        <path class="st0" d="M151.6,30c-3.8.5-8.9-2.8-12.9-3.2s-7.9-.1-11.7-.1c-4.4,0-8.7.5-13.3,1.4-10.3,1.8-21,5.2-31.6,10.9-10.7,5.7-24.1,20.7-32.1,33.2-3.6,5.6-8.6,16.1-10.2,22.4-4.5,18.5-9.7,30.7-8.2,47.1,0,.4-.1,1.8,0,1.9s.4,0,.5,0c.5.4,0,1.6.2,2.3.4,4.1,2.3,9.5,3.5,13.1,3.1,8.5,7.1,15.2,12.6,21s3.3,2,4.4,3.1-.2.5,0,.7c1.6,1.3,6.5,4,8.5,4.2s5,1.2,7.3,1.5c15.4,1.8,36.1-9,51.8-23.8s19.2-21.6,27.9-32.7,10.5-16.1,12.2-27.4c.3-1.9.2-3.7.7-5.7s1.6-4.6,2.2-6.7c1-3.9.3-9.6-.3-13-1.5-8.1-4.4-14.7-8.4-20.5-3.6-5.3-9.2-10.4-14.5-13.5s-6.6-3.5-8.1-3.7-.3.3-.5.4c-.8.1-1.1-.4-1.7-.5-12.8-3.1-23.5-1.3-37.7,5.7s-3.3,1.1-5,2.9-3.5,6.4-3,8.6c2.2-.2,4.4-.8,6.7-1.7,6-2.5,13.8-9.5,19.6-11.8,4.7-1.8,12.5-2.1,16.5-1.1s2.2,1,2.9,1.1c1.1.1,1.4.3,2.5.6,4.5,1.4,9.1,4.3,12.8,7,8.1,5.9,14.2,28.7,13.3,43.3-1,16.5-9.2,30.5-19.8,44.2-4.9,6.3-8.6,11.5-14,16.9-1.8,1.8-3.3,2.8-5.2,4.5s-4.1,3.7-6.1,5.2-5.1,4.1-6.7,5.6-1.1.9-2.9,1.9-2.7,1-3.9,1.8-2.2.9-3,1.3c-2.3,1.2-7.2,2.2-9.5,2.4-4.6.5-5.5,1-2.8.3-8.6,2.3-18.1,3.4-24.9-.7-3.2-1.9-5.7-4.5-8.1-7.4-6.1-7.3-11.4-17.5-13.8-28.6-3.7-17.1,4.4-47.7,15.6-67.8,3.4-6,12.1-17.8,17-21.8,18.1-14.7,40.5-21.4,57.8-22.7,3.4-.3,6.7-.2,10-.4s8.4.2,12.4.8,2.4.8,3.5.9c.7-.2,1.1-1.6.8-1.9s-1.3-1-1.6-1.1-1.6-.5-1.8-.5Z"/>
      </g>
      <g class="st2">
        <path class="st0" d="M234.6,124.5c0,.5-.1.4-.1.5s0,.4,0,.4-.2,0-.3,0,0,.2,0,.3c-.3,1-.6,1.4-.8,2.5s-.6.7-.9.6c0,.3.2.1.4.1.3,0,0,.3,0,.3,0,.3-.3.9-.5,1.2-.5.6-.8,1.7-1.1,2.4s-.3.1-.1.4.2,0,.2.2c.2.8.2,1.9.4,2.7s.2,0,.2.2c.1.3,0,.8.2,1.1s.2,0,.2.2c0,.2.2.6.4.8s.4.2.4.2c.1.3,0,.5.3.6s.2,0,.2,0c0,0,0,.3.1.4s.5.3.5.3c.1,0,.3,0,.4,0s.3,0,.6,0,0,.2.2.2c.4,0,.3-.2.4-.3.3-.1.8,0,1.1-.2s0-.2.2-.2c.3,0,.6-.2.8-.4s.1-.5.2-.5c0,0,.4,0,.5-.1.4-.2,1.1-1.1,1.4-1.4s.6-.3.7-.4.5-.8.5-.8c.1,0,.3,0,.4,0,0,0-.1-.3,0-.4s.2,0,.2,0,0-.3.2-.5c.5-.5.6-.8,1-1.2s.2,0,.3-.1c.4-.3,0-.9,0-1.3s.4-1.1.4-1.3-.1-.4,0-.5.2,0,.3,0,0-.2,0-.3c.3-.9.2-1,.3-2s.2,0,.2-.2c0-.1-.1-.5,0-.5s.4,0,.4,0,0-.4,0-.5.5-.5.5-.6c.1-.7.3-1,.5-1.6s0-.2,0-.3.3-.1.4-.3c.2-.5.3-.9.4-1.5s.3-.4.3-.4c.1,0,.3,0,.4,0,0,0-.3-.5.3-.5,0-.7-.5-.2-.5-.7.3,0,.4-.3.4-.3.3-.1.6-.2.9-.4s.3-.5.3-.5c0-.1,0-.4,0-.4s.2,0,.4,0,.5-.6.5-.7c0-.2,0-.5,0-.6s.2,0,.3,0,.4-.3.4-.3c0,0,.2-.4.2-.4.3-.1.2.1.3.1.2.1.2-.2.2-.2,0,0,.4-.3.5-.3.2,0,.9-.2,1.2-.2s.4.5.5.3,0-.3.2-.2,0,.2.1.2c.2,0,.6,0,.8,0s.7.5.7.5c0,0,0,.2.1.3.2.4.3.8.6,1.2s.3,0,.3.6-.3,0-.2.3h.6c0-.3-.1-.6-.1-.8s.1-.3.2-.5.2-.9.2-1-.2-.6-.1-.7.2,0,.3,0-.2-.6.1-.8.7,0,.5-.5c.1-.2.8.3.8.3,0,.2,0,.5.1.8s.2,0,.2.2c0,.1,0,.5,0,.5.2.2.2-.4.4-.3s0,.3,0,.4-.3,0-.1.2.2,0,.2,0c0,.2,0,.4,0,.6s.2,0,.2,0c0,.2-.2.1-.2.2s.1.9.2.9c.2.1.5-.5.8-.3.1.2-.1.2-.2.3,0,.3.3.6-.2.6h.3c.1.5-.2.3-.3.4s0,.6.1.6c0,0,.4-.2.3.2-.5,0-.2.3-.2.6s-.4,1.4-.5,1.8c-.2.8.1,1.3,0,2s-.3.6-.3.6c0,.3.2.8.2,1.1s-.3.1-.1.4.2,0,.2.2-.2,0-.2.1c0,.3.2.9.2,1.2s-.3,0-.1.3.2,0,.2.2-.2,0-.2.1c0,.2.2.6.1.8s-.3,0-.2.2.1,0,.2,0c0,0,0,.2.1.3s.3,0,.2.2-.2,0-.2.3.2,0,.2.2c0,.2,0,.5.1.7s.4.5.5.6c.2.4.4.8.8,1s.2,0,.3,0,.3.3.3.3c.3,0,.6-.1.8-.1s0,.3.2.3.9-.1,1.1-.2,0-.3,0-.3c.5-.2,1.3-.1,1.9-.3s0-.2.2-.2c.4-.2,1.2-.3,1.6-.5s0-.2.2-.2c1.5-.6,2.7-1.3,4.2-1.9s.8-.7.8-.7c.2,0,.8-.2,1-.4s0-.2,0-.3.2,0,.3,0c.8-.6,1.5-1.5,2.5-1.8l.6-.3c.1,0-.2.5-.2.6-.2.2-.8.5-1,.6s-.3.6-.5.6-.3,0-.3,0c0,0,.1.4,0,.5s-.4,0-.6.1-.1.3-.2.4-.3,0-.3.1c-.3.4-.1.4-.7.7s0,.1,0,.2c-.4.2-.4,0-.5-.1-.2-.1-.2.3-.4.4s-.5.2-.5.4c0,.4.2.3.2.3.1,0-.2.5-.3.4s0-.2,0-.2c-.2,0-.4.1-.6.1s0-.3-.4-.1-.2.3-.2.4-.2,0-.2,0c0,0,0,.4,0,.4.1,0,.5-.4.5,0-.2,0-.6.2-.8.3s0,.2-.1.2c-.2,0-.5,0-.3.4s.2,0,.2,0c0,.1,0,.2,0,.3,0,.1.3,0,.2.2-.4.1-.4.1-.5-.3-.4,0-.3.2-.4.3s-.3,0-.3,0,0,.2,0,.3-.3.3,0,.7c-.2,0-.3-.1-.4-.1s-.3.4-.3.5,0,.2,0,.2c0,0-.3,0-.4,0s0,.4-.2.2c-.2-.3.4-1.1-.3-.8s0,1.1,0,1.1-.6,0-.7.1-.4.5-.6.5-.2-.2-.2-.2c-.4,0-.4,0-.9,0s-.5,0-.6-.2c-.1-.3.1-.5-.5-.3,0,.4.4.2.3.6-.2.1-.2-.1-.3-.2-.4,0-.3.2-.4.3-.7.3-.5-.2-.6-.3s-.2,0-.4,0,0-.2-.2-.2c-.3,0-.7.1-1.1,0s-.7-.6-1-.8-1-.3-1.3-.6,0-.3-.1-.3c-.5-.5-1.7-1.5-1.9-2.1s-.3-1.2-.5-1.5-.3-.1-.4-.2c0,0,0-.3,0-.3s-.4,0-.5,0,0-.3,0-.4c0,0-.5.3-.4-.2s.3-.3.3-.3c0-.1-.1-1-.1-1s-.4,0-.4,0c0,0,0,.2,0,.3,0,.3-.3.7-.4,1.1s0,.3,0,.3c-.1.3-.5.3-.5.3,0,0,.1.3,0,.4s-.5,0-.1.5.2,0,.3-.1.3,0,.3,0,0-.2,0-.4.5-.3.3-.7c1.4-.2-.4,1.5-.5,1.7s0,.4,0,.6-.4.5-.5.5c0,.3.2.1.4.1.3,0-.4.6-.4.7s0,.2,0,.3c-.2.4-.6.3-.6.3s0,.2,0,.4-.6.6-.7.7c0,.2.2,0,.2.1.2.1,0,.2-.1.3-.3.4-.4.3-.5.5s-.5.8-.6.9c-.2,0-.4,0-.5,0s-.2.3-.2.4c-.2.2-.6.3-.8.4s0,.3-.2.2,0-.2-.3-.2,0,.2-.1.2c-.2.2-.2-.1-.2-.1-.4-.1-.6-.2-1.1-.3s-.3-.3-.3-.3c-.1,0-.5.1-.5,0-.1,0,.2-.6-.6-.3l-1.2-.8c-.4,0-.2-.3-.4-.6s-.7-.9-.8-1c-.1-.3,0-.7-.4-.5s-.4.5-.4.5c0,.1,0,.3,0,.4,0,.1-.8-.1-.5.5,1-.2,0,.4,0,.5s0,.4,0,.4c0,0-.4,0-.4,0s0,.4,0,.4-.5,0-.5,0,0,.3,0,.4-.2,0-.4,0-.3.4-.3.4c-.1.4.3.3.3.7h-.6c0,.1.3.3-.4.4s0-.3-.4-.1c0,.6.3.2.5.3s0,.5,0,.5c0,0-.2,0-.3,0s0,.2-.1.2c-.1,0-.7.1-.9.2s-.3-.3-.4-.1.4.4.3.7c-.2.1-.2-.1-.3-.2-.4,0-.4.4-.5.5-.2,0-.3,0-.5.1s0,.2,0,.2l-1.8.3c-.2-.2.4-.3.1-.4s-.2,0-.3,0,0-.2-.1-.2c-.2-.1-.3.6-.5.5s-.6-.6-.5-.7c-.1,0-.9,0-.9,0s0-.2,0-.2c-.5-.5-1.6-.4-2.3-1.1s-.4-.6-.8-.9-.2-.4-.4-.7-1.1-1.1-1.2-1.3c-.2-.6-.4-1-.7-1.6s-.2,0-.2-.1c0-.2,0-.4-.1-.6s-.3-.3-.4-.2,0,.2-.1.2c-.5.2-.6,0-.6,0-.5,0-.5.4-.6-.5-.2,0-.7.3-.8.2-.2-.2.3-.5,0-.6s-.3,0-.4,0c0,0,.3.6-.1.5,0-.2,0-.5-.1-.6s-.5,0,0-.4,1.2-1.1,1.8-1.8.5-.6.5-.7c0-.5-.2-.4-.3-.4-.2-.2.1-.2.1-.3,0-.2-.2-.6-.1-.8s.3,0,.1-.4-.2,0-.3-.3.2-.1.2-.3c0-.6-.3-1.3-.3-2s.2-.1.2-.3c0-.3-.2-.2-.2-.2-.2-.2.1-.2.1-.3,0-.3-.2-.9-.2-1.3s.2-.2.2-.2c0-.3-.2-.6-.1-.8s.4-1,.4-1c0-.3-.2-.9-.2-1.2s.2-.2.2-.2c0-.3-.1-.6-.1-.8s.9-.9.9-1c0-.5-.4-.3-.7-.2-.2-.4,0-.5,0-.7s0-.2,0-.3.2,0,.3,0c0,0,0-.4,0-.5s.3-.3.3-.4,0-.2,0-.3.1,0,.1-.1c0-.1-.1-.8-.2-.9s-.2,0-.2,0c-.1-.3,0-.3.1-.4,0-.4.6-1.3.6-1.5,0-.6-.3-.9-.1-1.6s0-.7,0-1.3.2-.2.2-.2c0-.1,0-.3,0-.4s.3-.3.3-.4c0-.5,0-.3,0-.8s0-.2,0-.3.2,0,.3,0c0,0,0-.2,0-.3.1-.4,0-.2,0-.7s.3-.3.3-.4c0-.9.3-1.2.5-1.9s.3-1,.5-1.6.2-.7.5-1.1c.9-1.1,1-2.3,2.6-2.9s0-.3.2-.2c0,.4,0,.7.4.5s0-.3.4-.3,0,.2.2.2c.2,0,.3,0,.5,0s.6.3.6.3.3.3.4.3c.1,0,.4,0,.4,0,0,0,0,.7.1.8s.2.3.3.4.3,0,.2.2-.3,0-.1.4c.3,0,.1-.2.2-.2.5-.2.3,0,.4.3s.2,0,.2.1c0,.1.3,1.4.3,1.5s-.2,0-.2.2.2,0,.2,0,0,.4.1.6c0,.2-.2.1-.2.3,0,.5.3,1.2.3,1.8s-.2.2-.2.2c0,.4,0,.8,0,1.2s.2.8.2,1.1-.3.3-.3.3c0,.2,0,.3,0,.5s-.2,0-.2.2c0,.2.2.8.1.9s-.3,0-.3.1,0,.7.1.8c0,.1.4-.1.3.2-.3-.2-.8.5-.6.5s.4-.2.4.1c-.8,0-.5,0-.5.4-.2,1.1-.4,2.1-.5,3.2s-.4.8-.4,1.1-.1,0-.1.1c0,.1,0,.4,0,.6s.3,0,.2.2c-.2.1-.9.8-.9,1s0,.3,0,.4-.1.2-.1.3.3,0,.2.2h-.4c0,.4.2.4.2.5.3.4-.4.3-.5.4s.2.9.2,1-.4,0-.4,0,0,.4,0,.4-.4,0-.4,0,.3.7-.3.8c0,0,0-.4,0-.4,0,0-.4,0-.5,0-.1-.3.2-.2.3-.2.2-.3-.5-.3-.6-.3s0,.2,0,.3-.2,0-.2.2c0,.5.6.5,1,.4ZM235.4,104.3c-.2,0-.7.1-.7.3s0,.3,0,.4-.3.2-.3.3c0,.2,0,.3-.2.6s-.3.6-.5,1.1c-.5,1.3-1,2.7-1.3,4.1s-.2.4-.2.5c0,.2.1.4,0,.5s-.2,0-.3,0,0,.2,0,.3c0,.2-.2.5-.2.7-.2.9-.2,1.8-.4,2.7s0,1.2,0,1.9-.3.7-.3.8c0,.2,0,.3,0,.5s-.2,0-.2,0c-.1.2.2.2.2.2.2.2-.1.2-.1.3,0,.2.1.4,0,.6,0,1-.3,2.1-.4,3.2s-.2,0-.2.2c0,.4.2.3.2.3.2.2-.1.2-.1.3,0,.2.1.4.1.6s-.2,0-.2.2.1.4.1.6c.6,0,.4-.5.5-.7s.3-.1.4-.3c.4-1,.8-1.4.8-2.5s.3-.3.3-.4c.2-.4.2-1.2.4-1.6s.4-.3.4-.3c0,0,0-.3,0-.4s.4-1.3.5-1.6c.3-1.5.8-2.9.9-4.3s.1-.5.1-.5c0-.2,0-.3,0-.5s.2,0,.3-.1,0-.2,0-.3c.2-.8.2-1.5.4-2.3s0-1.4,0-2.1.2,0,.2,0l-.5-3.3ZM237.5,108c-.6,0-.4.5-.4.8s-.6.6.3.4c0-.1-.1-.5,0-.6s.4.1.2-.6ZM237.3,109.8c-.6,0-.3.1-.3.5s-.2,0-.2.1c0,.2.1.1.1.1.4.4.2,0,.3-.2s.3-.2,0-.5ZM237.1,111.2c-.4-.2-.3,1.1-.4,1.3.6,0,.3-.1.3-.4s.1,0,.2-.2-.1-.3.1-.4c0,0-.2-.3-.3-.3ZM236.8,114.3l-.3.3c.1.2-.3.6-.1.8s.4-.5.5-.5v-.6ZM236.5,116.4c0-.1-.1-.6-.4-.4.2.3-.4.5-.4.6s0,.4,0,.4c.2.2.4-.4.5-.4s.2,0,.2,0ZM229.4,117.4c-.3,0,0,.5-.3.6s-.6,0-.3.4.6,0,.6,0,0-.2,0-.3.3-.3,0-.7ZM235.6,118.4s-.3,0-.4,0c0,1.2.6,0,.4,0ZM235.2,119.6c-.2-.2-.7,1.1.1.8,0-.1,0-.7-.1-.8ZM234.6,121.9c-.4-.2-.7.6-.5.9.2,0,.2-.2.3-.4s.2-.4.2-.5ZM253.9,120.3c-.3,0-.7,0-.9.2s-.7.5-.7.6-.5.5-.5.5c0,0-.3.6-.4.6-.1,0-.4,0-.4.1s0,.2,0,.2c-.1.3-.6.4-.8.8s0,.3,0,.3c-.1.2-.9,1.1-.9,1.2,0,.2,0,.6-.1.9s-.2,0-.2.1c-.3.5-.6,1.8-.6,2.4s-.2.2-.3.6c0,.6.1.3.2.4.2.2-.2.3-.3.5-.1.3,0,.6,0,.9s-.2,0-.2.2c0,.3.1.6.1.9s-.2.2-.2.2c0,.2.1.4.1.6s-.3.3-.3.4c0,.4.3,1,.2,1.4s-.3,0-.3.2,0,.7.1.8.2,0,.3,0c0,0,0,1.1.5,1.1s.3-.2.3-.2c.9-.6,1.5-1.4,2.2-2.3s1.1-1.9,1.8-2.9,1.5-2.5,1.7-3.5.3-.9.4-1.4.1-.5.1-.5c0,0,.2,0,.3,0s0-.4.1-.5c.1-.5,0-.7,0-1.1s.3,0,.1-.5-.2,0-.2-.2c-.2-.5-.4-.9-.6-1.3s0-.4,0-.4-.3,0-.3,0c0-.2-.1-1.1-.2-1.1ZM232.9,126.7s-.3,0-.4,0c-.1.1,0,.4,0,.5s-.6.6.3.4c-.2-.3.2-.9,0-1ZM247.2,124.7c.2-.4-.3-.2-.4,0s0,.2,0,.3c0,.1-.3,0-.1.3.2,0,.2.2.2.2,0,0,.3-.2.3-.3.1-.2-.2-.1-.2-.2,0-.2.1-.2.1-.2ZM229.2,127.7h-.3c.1.5-.5,1,.4.8v-.8ZM247.7,125.1c-.2-.2-.5.8-.2.9.3,0,.1-.2.1-.5s.3-.3.1-.5ZM232.5,128c-.4,0-.3.7-.3.7s-.3,0-.4.3c-.2.6.2.3.4,0s.4-.6.3-1.1ZM255.9,129.5c-.4,0,0,.3-.1.4s-.2,0-.3,0c0,0,.1.5.1.7,0,0,.3,0,.3,0,0,0,.1-1,0-1.1ZM253.8,132.9c-.6,0-.6.5-.4,1,.3,0,.1-.2.2-.2s.3,0,.3,0-.1-.5-.1-.7ZM243.9,135s-.4,0-.5,0,0,.3,0,.5-.9,1-.7,1.1.4-.4.5-.4c.1,0,.3,0,.4,0s0-.2,0-.3c.1-.4.5-.3.5-.4s0-.5,0-.5ZM242.6,136.7c-.6,0-.6.7-1.1.8l-.3.6c.4,0,.4-.3.6-.5s.5-.2.6-.4l.3-.6ZM268.8,134.6c-.2-.2-1.1.8,0,.4,0,0,0-.4,0-.4ZM268.8,135.8c-.1,0-.3,0-.4.1s-.4.2-.2.4c.2.2.8-.4.6-.5Z"/>
        <path class="st0" d="M188.6,134.5c0,0,.4,0,.4,0,0,0,0-.3,0-.4s.5,0,.6-.1.4-.6-.2-.4c-.3-.6.4-.4.9-.6v-.4c-.3,0-.2.2-.3.2-.4.2-1.1.1-1.5.3s-.8.5-.9.6c-.2,0-1.5.2-1.5.2-.2.2.2.2.2.2.2.5-.3.5-.5.6s-.2.3-.2.4c-.3.2-.5,0-.3.5-.2.1-.2-.2-.3-.2-.3,0-.7.2-.8-.3.4-.6,1.6,0,1.4-1-.2,0-.5,0-.7.1s-1,.7-1.2.8-.4,0-.6.1l.8.4c.1-.1,1,.4,1,.5.1.2,0,.5.2.8s.7.8.7.8c.1.3.3.5.3.5.2.4,0,1.2.5,1-.2.5.1.4.2.4.1.3,0,.9.2,1.2s.2,0,.2.2c.2.5-.1.4-.1.6,0,.3.2.8.2,1.1s-.2,0-.2.2c0,.8,0,.3-.2.8s-.3.7-.5,1.1-.3.2,0,.3c.4,0,.2-.3.6-.3.3.2,0,.2-.1.3,0,.2,0,.3,0,.5s-.5.7-.5.7c0,0-.5.1-.5,0-.1,0,.2-.5-.4-.3s-.5.5-.5.5c-.1.3.4,0,.5.2s0,.4,0,.4c0,.1-.4,0-.4.1s0,.2,0,.3-.2,0-.2.2c0,.2.1.5-.2.6s-.4-.1-.2.5h-.6c.2.6,0,.3-.3.5s-.3.7-.3.8c-.1.3-.7.5-.9.8s0,.5-.2.2,0-.4-.4-.2,0,.4-.2.5-.6.3-.7.4-.2.4-.2.4c-.5.3-.9.3-1.3.5s-.7.5-.9.6,0,.1,0,.2c-.4.2-1.3.1-1.7.3s0,.2-.2.2,0-.2-.3-.2,0,.3-.4.3,0-.2-.2-.2,0,.2-.2.2-.9.2-1.1.2,0-.2-.1-.2c-.2,0,0,.2-.2.2-.3.2-.4-.1-.4-.1-.3,0-.7.2-1,.2s-.3-.3-.4-.3c-.3,0-.2.2-.3.2-.3.2-.4-.1-.4-.1-.8,0-1.3-.2-2.1-.3s-.5-.3-.5-.3c-.2,0-.8,0-.9,0s0-.2,0-.2c-.2-.1-1.5-.8-1.6-.8s-.4,0-.4,0,0-.2,0-.4-1.9-1.3-2.2-1.6,0-.3-.1-.3-.5-.3-.6-.4c0,0,0-.3-.1-.3s-.2,0-.2,0c-.1,0-.9-.8-.9-.8-.4-.6-.8-1.2-1.2-1.8s-.3-.7-.6-1.4-.6-1.1-.6-1.3c-.2-.5-.4-2.2-.5-2.7s.2,0,.1-.4c0-.5-.2-.3-.3-.3-.1-.1.3-.6.3-.6,0-.2-.5-.2-.5-.4s.2,0,.2-.1c0-.2-.1-.4-.1-.6s.1-.3.2-.5.3,0,.1-.4-.2,0-.2,0c-.2-.3.1-.4.1-.4,0-.3-.2-.2-.2-.2-.2-.2.3-.4.3-.5,0-.6-.2-.4-.3-.5-.2-.2.1-.2.2-.3,0-.1,0-.3,0-.5s.2,0,.2-.2c0-.7,0-1.4,0-2.2s.2,0,.2-.2c0-.2-.2-.9-.1-.9.2-.2.5.2.6,0s-.2-1-.2-1.2.4-.3.4-.4c0,0,0-.2,0-.3,0-.1.1-.1.2-.2,0-.3,0-1.4.2-1.5s.2.3.4.1,0-.6,0-.6c.1-.5.5-1.3.7-1.8s.3-.3.3-.4c0-.4-.2-.3-.3-.4-.2-.4,0-.4.1-.5s0-.3,0-.3.5,0,.5,0,0-.2,0-.4.3-.2.3-.3.1-.4.1-.5c0,0,0-.3,0-.3s.4,0,.4,0,0-.4,0-.4.4,0,.4,0-.1-.6-.1-.7.4,0,.4,0,0-.2,0-.3c0-.4.3-.7.4-1s0-.3,0-.4.5-.3.6-.3c.3-.3,0-.7.1-.8s.4,0,.4,0-.1-.4,0-.5.4,0,.6-.1.5-.6.5-.7c0,0,0-.2,0-.3.1-.3.4-.2.6-.4s.8-1.1.8-1.1c0-.2,0-.3,0-.5.6.1.3-.2.4-.3s.4,0,.5-.1.6-1,.8-1.1.3,0,.3,0c0,0,0-.3,0-.4s.2,0,.4,0,.1-.3.2-.4.6-.3.7-.4.2-.4.2-.4c.1,0,.5,0,.5-.1s0-.2,0-.3c0-.1.6-.4.8-.4,0-.4-.1-.3-.2-.4-.3-.3.4-.2.6-.3s.4-.8.6-.7,0,.2.1.2c.2,0,.7-.2.7-.4s-.5-.1-.3-.3.3,0,.4,0c.2,0,.4-.3.9-.6s.2-.4.2-.4c.1,0,.3,0,.5-.1.4-.3.5-.4,1-.6s0-.3.4-.3,0,.2.2.2,0-.2,0-.2.3,0,.5,0,0-.2.1-.2c.2,0,1.9-.4,2.2-.4s.2.2.2.2c.3,0,.7-.2,1-.2s.3.3.4.3c.1,0,.5-.1.5,0s0,.2,0,.3c0,0,.3,0,.4,0s0,.2.2.2c1.2,0,.8.2,1.7.7s.2,0,.3,0,.3.3.3.3c.2,0,.4,0,.5,0,0,0,0,.2,0,.4s.8.5.8.5c.3.6.2.3.5.6s.5.7.6.7c0,.1.2,1.1.2,1.2s-.1,0-.1.1c0,0,0,.2,0,.2,0,0-.2,0-.3,0-.2.1-.2.2-.4.3s0,.3-.3.2,0-.2-.2-.2-.2,0-.3,0c-.2,0-.3-.4-.4-.4,0,0-.7,0-.8-.1-.3-.1-.2-.3-.3-.5s-.2,0-.2,0c0-.2,0-.4-.1-.6s-.8-.3-1-.3,0-.1-.1-.1c-.4,0-1,0-1.4,0s-.1-.3-.3-.1.1.3-.3.2,0-.2-.2-.2,0,.2,0,.2c-.4.2-1.2.1-1.6.3s-.9.5-.9.6c-1,.4-2.2,1-3.1,1.8s-.6.6-.6.7c-.2,0-.4,0-.6.1s-.1.5-.2.5c0,0-.2,0-.3.1s-.1.3-.2.4c-1,.9-2.1,1.9-2.8,3s-2.3,2.8-2.5,3.4,0,.3,0,.3-.4,0-.5.3,0,.2,0,.3c0,.2-.4.3-.4.3,0,0,0,.2,0,.4s-.5.6-.6.8,0,.2,0,.3c-.4.9-1,1.8-1.3,2.6s0,.2,0,.3-.4.1-.4.3,0,.3,0,.4c0,.3-.6,1.1-.6,1.2,0,.3,0,.7,0,.9s-.3.3-.3.4c0,.2.1.6,0,.6s-.4,0-.4,0,.1.6.1.7-.1,0-.1.1c0,.4-.1.7-.2,1.1s0,.2,0,.3-.3,0-.3.1c0,.2.1.4,0,.6,0,.6-.5,1.8-.6,2.4s.2,1.4.1,1.9,0,.9,0,1.3-.2,0-.2.2c0,.6.3,2.4.5,2.9s.2,0,.2.2c.2.3-.1.3-.1.4,0,.4.2.3.3.4.1.3.3.6.3.7.5,1.2.6,1.6,1.4,2.7s2.1,2,3.3,2.5.3.3.4.3c.1,0,.3,0,.4,0s0,.2,0,.3.2,0,.3,0,0,.1.2.2c.8.2,1.5.2,2.4.2s0,.2.2.2c.6,0,2.4-.3,2.9-.5s0-.2.2-.2c.2,0,.6,0,.8-.1.6-.3,1.5-.9,2-1.1s.5,0,.5,0,0-.2,0-.3.2,0,.3,0c.2-.2.5-.4.8-.6.4-.3,1.1-.7,1.5-1.1s.1-.3.2-.4c0,0,.6-.3.7-.4.3-.3,0-.2.6-.5s.4-.9.5-.9c.1,0,.3,0,.4,0,0,0,0-.3,0-.4s.2,0,.4,0,.5-.6.5-.7c0-.1.2-.8.3-1s.4-.3.4-.3c0,0,0-.3,0-.4s.3-.3.3-.4c0-.2-.2-1.3-.2-1.6s-.2,0-.2-.2c0-.2,0-.6-.4-.7s-.2,0-.3,0c-.2-.1-1.1-.9-1.2-.9-.2,0-.3,0-.5,0s-.1-.3-.3-.1.1.2-.1.2,0-.2-.1-.2-.9.1-1.1.2-1,.5-1.1.6-.8.2-1,.2-.3-.2-.4-.3-.2,0-.2,0c0,0,0-.2-.1-.3s-.5-.3-.6-.4c-.4-.4-.6-1.2-.9-1.5s-.3,0-.2-.2.3,0,.2-.2-.2.1-.2-.2.1-.1.2-.3,0-.2,0-.3c.1-.3.3-.2.5-.3s0-.3.3-.2,0,.2.5.1.2-.2.3-.3c.3-.2.3.1.4.1.4,0,.3-.2.4-.3.3-.1.6,0,.5-.4.3-.1.2.2.3.3s.6,0,.7-.1,0-.3,0-.3c.2,0,.6,0,.9-.1s0-.2.2-.2c.1,0,.8-.2.9-.1s0,.2.2.1,0-.2.3-.3.1.1.3.2.3,0,.4,0,0,.5.2.5.3,0,.4,0,0,.2.2.2c.1,0,.9-.1,1-.2s0-.1.1-.2.3,0,.3-.1c0-.9-.4-.5-.5-.6-.2-.1.4-1.1.5-1.1.1,0,.4-.1.5,0s0,.2,0,.2l1.4-.2c0-.1-.1-.5,0-.6s.8-.1,1-.2,0-.2.2-.2c.1,0,.5-.1.7-.1.3,0,.3.5.7.3s.2-.2.2-.2c0-.2-.2-.2-.2-.2-.2-.4,0-.4.3-.4,0,.2,0,.5.3.4,0,0,0-.4,0-.4l1.5-.2s0-.2,0-.2.3,0,.5,0,0-.2.2-.2.8-.2,1-.1,0,.1.2.2.3,0,.3,0,0,.3,0,.4.2,0,.2,0,0,.1.1.1.3,0,.3,0,0,.4,0,.5.2,0,.2,0c0,.1,0,.2.1.3.2.3.6.1.6.1.2.1-.2.2-.2.3,0,.2.1,0,.2.1,0,0,0,.2,0,.3.2.2.1-.3.2-.3,0,0,.4,0,.4,0,0,0,0,.8.2,1s.3,0,.3.6-.3,0-.1.4.3,0,.3.4-.2,0-.2.2.2,0,.2,0c.3.7-.3.8-.2,1s.2.2.3.3.1.7.1.7-.2,0-.3,0c-.3.2-.1.5-.2.8s-.2,0-.2.2c0,.2.1.5.1.7s-.3.3-.3.4c0,.2.1.4.1.6s-.2,0-.2.2.1.5.1.8-.4.3-.3.6.3,0,.3.5-.1,0-.2.2,0,.2,0,.3-.2,0-.3,0c0,0,0,.4,0,.5s-.2,0-.2.2c0,.1.1.5,0,.5s-.6.1-.6,0c-.2-.2.1-.5.1-.5,0-.3,0-.6,0-.6,0-.2,0-.3,0-.5s.4-.1.1-.3h-.3c.2.6-.3.8,0,1.2-.5,0-.1.4-.2.8s-.3.1-.1.3.2-.1.2.2-.1.3-.2.3c0,.4.1.7,0,1.1s-.1.3-.1.3c-.2.2-.3-.4-.4-.1s.3.4.3.4c.4.9-.8.7-.9,1.1s0,.4,0,.6,0,.3,0,.6-.2,0-.2.2.5.2.6.4c-.8,0-.3.2-.4.5s-.3.1-.3.2c0,.1.2.9.2,1.2s-.2.2-.2.2c0,.2.1.5.1.7.7,0,.2-.3.3-.8s.3-.3,0-.7h.4c.1.2-.1.1-.2.2,0,.3.1.6.2.9,0,0,.5-.5.5-.5.6-.3.8-.3,1.4-.7s.2-.4.4-.2.1.7.1.8c0,.2-.2.2-.2.2,0,.5.4.9.5,1.6s-.5.2.2.5.6,0,.8.1.5.5.5.6.2,0,.2.1,0,.3,0,.3.8,0,.6.3-.2,0-.2.1c0,.1.1.6.1.6,0,.1-.6-.2-.3.5-.2.1-.2-.1-.3-.2s-.4,0-.5,0,0,.2,0,.2c-.1,0-.6.3-.7.4s-.2.4-.2.4c-.1,0-.3,0-.4,0s0,.2-.1.2-.7.1-.7.1c0,0,0-.4-.4-.7s-.2,0-.2,0c0,0,0-.5-.1-.7s-.2,0-.2-.1c-.1-.3-.2-1.7-.3-1.8s-.2,0-.4,0-.5-.5-.7-.5c0,.4.4.4.4.9-.6.2-.3-.1-.5-.5s-.8-.5-.9-.6c0-.2,0-.4,0-.5s-.2,0-.2-.2c0-.3.1-.2.2-.3.1-.2-.2-.2-.2-.2,0,0,0-.2-.1-.3s-.3,0-.2-.5.1,0,.1-.1c0-.2.2-.4.2-.5,0-.2,0-.4,0-.6-.3,0-.1.3-.2.3s-.5.1-.5,0,0-.5,0-.5c0,0,.3,0,.3-.1,0-.3-.2-.9-.2-1.2s.1-1.1.2-1.5-.1-1.2,0-1.6.3-.7.3-.8c0-1.4.3-2.6.3-3.9s.4-1.1.4-1.2c0-.2-.1-.5,0-.5s.2,0,.3,0c0,0,0-.4,0-.6,0-.5.4-1.6.5-2s.2-1.2.2-1.4-.1-.8-.1-.8-.2,0-.3,0-.1-.2-.2-.2c-.1,0-.4,0-.6,0s-.4.5-.4.5c-.2,0-.5,0-.6.1s0,.2-.1.2c-.1,0-.7.1-.8.1s0-.2-.2-.2c-.4,0-.3.2-.4.3-.3.1-.6.3-.6.3-.1,0-.4,0-.5,0,0-.1,0-.3,0-.4,0,0-.2,0-.3,0,.3.2-.2.9-.5.9s0-.2-.3-.2,0,.2-.2.2-.3.3-.3.3c-.3.1-.8.2-.9-.2s.3-.3.3-.4c0-.1-.1-.5,0-.5.1-.2,1,.2.6-.7.3-.2.4.1.5.1.2,0,0-.2.1-.2.2-.2.2,0,.2.1s.2,0,.2,0c-.2-.6.2-.3.6-.5s0-.2.1-.2c.4-.2.5.2.4.3s-.2,0-.3,0,0,.2-.1.2c-.2,0-.5,0-.7.1.1.1.3.4.3.5.1,0,.3-.4.4,0ZM169.1,115c.2,0,.4,0,.6-.1s.5-.8.5-.8c.1,0,.3,0,.4,0,0,0,0-.5-.4-.3s0,.2,0,.2c-.2.2-.9.5-1,.8s0,.3,0,.4c-.5.1-.3.2-.4.3-.3.1-.5-.1-.4.5.3,0,.1-.2.2-.2.3-.1.5,0,.5-.5ZM168.1,115.7s-.3,0-.4,0,0,.2,0,.3c-.2.3-1,1.2-1,1.4s0,.2,0,.4c.3,0,.4-.5.5-.7s.3,0,.3-.1.3-.6.4-.6c.1,0,.3,0,.4,0s0-.7-.1-.7ZM190.1,131.8c-.5,0-.4,0-.6,0-.7-.2-.2.6,0,.6s.5,0,.7-.1c0-.1,0-.3,0-.4.1,0,.3,0,.4,0,.1-.2-.1-.5-.5-.3,0,.1,0,.3,0,.4ZM190.7,131.7l1.5-.2v-.4c-.3.2-.5,0-.7.1s0,.2-.3.3-.7-.6-.5.3ZM187.4,132.2c-.4-.2-.6.6-.7.7s-.4,0-.6.1c0,.3.2.5.5.4s0-.2,0-.2c.1,0,.5,0,.5,0s0-.3,0-.3,1.2-.2.8-.5-.3,0-.3-.2c-.2,0,0,.2-.1.2-.2.2-.2-.1-.2-.1ZM193.3,131.5c-.2,0-.3,0-.5,0l-.4.5c.2.1.7-.2.8-.1s0,.2,0,.2c.6.7.4-.6,0-.6ZM191.3,132c-.4,0-.4.4-.9.3v.5c.4,0,1.3-.1,1.2-.5s-.3-.3-.3-.3ZM191.3,132.9c-.1,0-.4.4-.3.4l1-.2s-.2-.3-.3-.4c-.2-.1-.1.2-.2.2-.2,0-.1-.1-.2-.2ZM195,141.5s-.4,0-.4,0c0,0,0,.2,0,.3s-.3.1-.1.3.3,0,.2.2-.2,0-.2,0c0,.1,0,.3,0,.5s0,.4,0,.7-.4,1-.4,1c0,.3.1.6.1.9.5-.1.3-.5.3-.8s.1,0,.1-.1c.2-.8.2-1.8.2-2.6s.4-.3.1-.5ZM184.9,146.9c-.2-.1-.7.4-.5.5.2.1.7-.4.5-.5Z"/>
        <path class="st0" d="M215.9,123c0,0,.5.4.5.5,0,.4-.1.3-.1.5,0,.3.2.2.3.3.2.3-.1.3-.1.4,0,.3.2.7.2.9s-.3,0-.2.3h.4c0-.2-.3-.7,0-.7,0,0,.1.9.2,1.1s.2,0,.3,0,0,.2,0,.3.3.4.3.4c0,0,.4.2.4.2,0,.2.1.7.2.9s-.2.2-.2.2c0,.3.2.7.2,1s-.1,0-.1.1c0,.3-.3,1-.3,1.3-.1,1.3-.1,2.6-.2,3.9s-.3.1-.1.4.2,0,.2.2-.2,0-.2.1c0,.2.2.6.1.8s-.2,0-.2.2c0,.5.5,2.1.4,2.3s-.2,0-.2,0c0,.2.2,0,.2.2.1.3,0,1,.2,1.3s.2,0,.2.1c0,.2,0,.6.1.8s.6.4.7.6,0,.4,0,.4c0,0,1.8-.3,2-.3s0-.2.1-.2c1.1-.4,2.1-.7,2.9-1.4s0-.4.2-.2c.3.3-.4.8-.4.9s0,.3,0,.4-.2,0-.2.1c-.1.2.2.1.2.2s.1.5.1.6-.1,0-.1.1c0,.1,0,.5-.2.6s-.5,0-.3.4.2,0,.2,0c.2.2-.1.2-.1.2,0,.1,0,.3,0,.5s-.3.3-.3.3c0,.1,0,.3,0,.4,0,0-.5,0-.6.1s-.6.5-.7.5c-.1,0-.7.1-.8.1s-.5-.5-.6-.5c-.3,0-.7.1-1,.1s-.3-.3-.4-.3c-.1,0-.3,0-.4,0s-.1-.3-.3-.4-.2,0-.3,0c-.3-.1-.3-.5-.6-.6-.7-.3-.8-.2-1.2-.8s-.6-.3-.6-.4c0-.2,0-.4,0-.5s-.4-.2-.4-.3c0-.1,0-.3,0-.4-.1-.3-.4-.6-.6-1.1s-.2,0-.2-.1c0-.2-.1-1.2-.3-1.2-.2,0,0,.2-.2.2-.6.3-.7,0-.4.8-.5-.2-.7.6-.8.7s-.6,0-.7.4,0,.3,0,.5-.3.1-.1.4c.5,0,.3-.3.3-.5.1-.3.6-.5.6,0s-.2.2-.2.3.1.2.2.4-.3.3-.3.4c-.1.3-.3,1.3-.6,1.5s-.3,0-.4,0,0,.2,0,.4-1.1,1.4-1.3,1.7-.8,1.2-.9,1.2c-.2,0-.3,0-.5.1s-.7.5-.7.5c-.3.1-.8,0-1,.2s0,.2-.2.2,0-.1-.1-.2c-.4-.1-.8-.1-1.1-.2s-.8-.1-1-.3-.3-.6-.3-.6-.2,0-.4,0c-.3-.1-.8-.7-1-1s-.5-.2-.5-.2c0-.1,0-.3,0-.5s-.2,0-.2,0c-.2-.5-.5-1-.6-1.4s-.2-.9-.2-1,.2,0,.2-.2-.2,0-.2,0-.1-.5-.1-.7.2-.2.2-.2c0-.1,0-.3,0-.5s.2,0,.2-.2c0-.1,0-.7-.1-.8s-.2,0-.2-.2.1,0,.2-.1c0,0,.1-.4.1-.5,0-.2-.1-.5-.1-.8s.2,0,.3-.1c0,0-.1-.5-.1-.7,0-.3.3-1.3.3-1.7.1-.6.4-1.1.5-1.8s.1-.8.2-1,.4-.6.5-.7c0-.2-.2-.5.2-.7s.4,0,.5-.3,0-.3.1-.4c0-.2.3-1.4.4-1.5s.2,0,.3-.1c.5-.4.2-.7,1.1-1.2s.3-.7.3-.8c.2-.3.6-.7.8-1s0-.2,0-.2c0,0,.4,0,.5-.1s.5-.8.5-.8c.1,0,.3,0,.4-.1s.2-.3.5-.5,0-.3.3-.2.2.3.5.1c0,0,0-.4,0-.4s.7-.1.8-.1c.2,0,.2.2.2.2.4,0,.4,0,.9,0s.9.1,1,.3,0,.3,0,.4.2,0,.2.1c0,.1,0,.4,0,.4,0,0,.4-.1.6.1s0,.2.1.3c.2.2.5.1.5.2.1,0,0,.5.3.3-.2-.3.1-.4.1-.5,0-.8,0-1.9.4-2.7s.3-.3.3-.3c0-.3-.2-.6.5-.4ZM208.3,127.5h-.5c0,.7.5.6.5,0ZM212,127.5c-.2,0-.4,0-.6.1s0,.2-.1.2c-1,.4-.6.3-1.2,1s-.2,0-.3.1c-.1.1-.2.6-.3.7s-.3,0-.4,0c0,0,.1.3,0,.4s-.6.3-.6.3c0,0-.8.9-.8.9,0,.1,0,.6-.1.8s-.3.3-.3.3c0,.2,0,.7-.1.9s-.3.3-.3.3c0,.1,0,.3,0,.4s-.2,0-.3,0,0,.2,0,.4-.2.2-.3.3c-.2.4-.3,1-.4,1.4-.2.8-.3,1.4-.5,2.2s0,1-.1,1.5-.2,0-.2.2c0,.4,0,.8,0,1.2s.1.5.1.8-.2,0-.3.1c0,0,.2.7.1.9s-.3,0-.1.4.2,0,.2.2c0,.3,0,.8.2,1.1s.2,0,.3,0c0,0,0,.5.1.6s.8-.1.9-.2.4-.3.4-.3c.1-.1.5-.6.5-.7.3-.5.4-.5.9-.8s1.5-2.8,1.7-3.3.6-.5.7-.8c.5-1,1-2.5,1.4-3.6s.1-.5.1-.5.4-.1.4-.3c0-.2,0-.6.1-.8.2-.5.4-1,.5-1.5s.2,0,.2-.2c0-.3-.5,0-.6,0-.1,0,.2-.6-.6-.3-.2-.4,0-.5,0-.7,0-.5-.3-.4-.3-.6,0-.3.2-.2.1-.4,0-.8-.4-1.8-.5-2.7ZM213.9,135.3s-.3,0-.3.1c0,.4,0,.3-.1.4s0,.2,0,.3c0,.1-.3,0-.1.3h.6c-.2-.3,0-1.1,0-1.1ZM213.5,136.9s-.2,0-.2,0c0,.1,0,.6.1.6.2.2.2-.4.4-.3s-.1.5-.1.5c0,.4,0,.7,0,1.1s-.4.3-.1.5.6,0,.6,0c0,0,0-.4,0-.5,0-.2,0-.5,0-.8s.2,0,.2-.2c0-.3-.3-1.2-.5-.9s0,.2-.1.2,0-.2,0-.2ZM213.1,138.6c-.2-.1-.4.3-.4.4s-.3,0-.3,0,0,.2,0,.3-.3.3-.1.5.4,0,.4,0c0,0,0-.2,0-.4s.7-.6.4-.8ZM212.2,140.3c-.3-.2-.7.7-.4,1,.6,0,.3-.2.3-.6s.3-.3.1-.4ZM223.8,141.9c-.4,0-.3.3-.7.4l-.4.4c.4-.1.5.3,1,0,0-.2,0-.4,0-.5s.3,0,.2-.3Z"/>
        <path class="st0" d="M184.8,132.6c.2.5-.3.6-.5.8s.1.5-.5.5c0-.3-.2-.5.2-.5-.4-.6.2-.3.6-.5s0-.3.2-.2Z"/>
        <path class="st0" d="M188.2,143.9s0,.3,0,.4-.2,0-.3,0,0,.2,0,.3-.4,0-.4,0c-.2-.1.4-.9.6-.8Z"/>
        <polygon class="st0" points="195.3 146.7 195.3 147.1 194.8 147.5 194.8 147.1 195.3 146.7"/>
        <path class="st0" d="M225.6,141.4c.1.1-.2.3-.2.4-.7.4-.3-.5.2-.4Z"/>
        <g>
          <path class="st0" d="M207.6,197.1c0-.6-.2-.8,0-1.3s.1-.5.1-.5c0,0,.5-.5.7-.7s.1-.6.2-.7.4-.5.4-.5c0-.1,0-.3,0-.4s.2,0,.4,0,.6-.9.7-1,.5-.5.6-.6c0-.2,0-.4,0-.5,0,0,.2,0,.4,0s.5-.9.7-1.1.2,0,.3-.1c.3-.2.1-.6.1-.6,0,0,.2,0,.3,0s.9-.9,1-1,0-.2,0-.2c0,0,.2,0,.3-.1s.4-.7.5-.8.3,0,.3-.1c.2-.2.4-.7.6-.8s.3,0,.4,0c0,0-.2-.7-.1-.9s.2-1.2.2-1.3c0-.6-.4-1.5-.3-2s0-1.3,0-2,.2,0,.2-.2c0-.3-.1-.7-.2-.9-.1-.2-.9.2-.6.7s.5,0,0,.5-.2.2-.5.4-.6.5-.6.6c0,.2.2.2.2.2.2.2-.1.2-.1.3s0,.3,0,.3-.7,0-.7.3.2.9-.5,1c0,0,0-.8-.3-.5s0,.2,0,.3c-.2.3-.5.3-.5.3,0,0,.1.3,0,.4s-.2,0-.2,0,0,.3-.2.2,0-.3-.2-.2c0,0,0,.4,0,.4,0,0-1.4.2-1.7.3s0,.2-.2.2,0-.2-.1-.2c-.2,0-.5.1-.7.1s-.4-.1-.5-.2c0,0-.5-.4-.5-.4-.2,0-.4,0-.5,0s-.6-.7-.8-.7c-.2,0-.4.1-.7-.2s0-.2-.1-.3c-.5-.5-.7-.4-1-1.2s-.5-.7-.5-.7c-.1-.3-.3-.9-.4-1.2s-.4,0-.2-.2.2,0,.2-.2c0-.5-.3-.4-.3-.5s-.2-.8-.2-1,.2-.2.2-.2c0-.5-.3-.5-.3-.6,0-.2,0-.5-.1-.7-.4,0,0,.3-.1.4s-.7,0-.9,0c0,.5.2.7.6,1-.9,0-.4.4-.5.5s-.6,0-.6,0,.3,1.2.2,1.3-.4,0-.5.3,0,.2,0,.3c0,.2,0,.2,0,.6s-.5.4-.3.5c.2,0,.9-.3.8,0s-.1,0-.2,0c0,.1,0,.3,0,.4,0,.3-.9,1.3-.9,1.5s0,.3,0,.4c-.2.3-.3,0-.5.8s-.3.1,0,.3c.4,0,.3-.2.5-.4s.5-.5.6-.6,0-.3,0-.4.4,0,.4,0c0,0,0,.2,0,.3s.2,0,.2,0c.2.2-.2.3-.3.5s0,.5-.2.7-.5.5-.5.5c0,0,0,.8,0,.8s-.2,0-.4,0-.1.3-.2.4c-.3.3-1.6,1.2-1.9,1.3s-.4,0-.5.1,0,.5-.3.5,0-.2-.2-.2-.2,0-.3,0,0-.3-.1-.3c-.5,0-.2.3-.3.4-.7.3-.5-.1-.6-.2s-.4,0-.6,0-.4-.1-.5-.2c-.1,0-.4-.4-.5-.4s-.7,0-.8-.1,0-.2,0-.4c-.1-.2-1.3-.8-1.4-.8-.2-.4-.4-.5-.6-.9-.3-.6-.3-.6-.6-1.3s-.5-.6-.5-.7c0-.2,0-.5-.1-.7s-.2,0-.2-.2.3,0,.1-.4-.2,0-.2-.2.2,0,.2-.3-.4-.3-.3-.7c-.6,0-.4.4-.5.8s-.1.4-.1.5c0,.2-.4.3-.4.4,0,.5.3.3.7.2.2,0-.2.6-.6.5s0-.3-.2-.1,0,.5,0,.6-.3.2-.1.5h.4c.1.2-.1.1-.2.2,0,.2,0,.4,0,.5-.4.2,0-.7-.5-.5.1.2,0,.5-.2.6s-.4-.1-.2.5l.5-.2v.4c1.3,0,.3.8,0,1.3s0,.3,0,.3c-.1.2-.9,1.1-.9,1.2s0,.3,0,.4-.3,0-.4,0-.2.4-.2.4c-.1,0-.3,0-.4,0s.2.4-.1.7-.2,0-.3.1-.3.2-.4.3c-.1,0-.5.8-.6.9-.4.2-.3-.1-.4-.1-.1,0-.4.4-.5.5-.2,0-.5,0-.6.1s0,.2,0,.2c-.2,0-.1-.2-.2-.2-.2,0-.4.1-.6.1s0-.2-.2-.2c-.6,0-.6,0-1.1-.2s-1.6-.7-1.6-.8c-.4-.7-.4-.4-.7-.8s-.5-.7-.6-.7c0-.1,0-.5,0-.5s-.2,0-.3,0c0,0,0-.4,0-.5s-.2,0-.2-.2-.4-2-.3-2.1.2,0,.1-.2-.2,0-.2,0c-.2-.3.1-.4.1-.4,0-.2-.1-.5,0-.6s.2,0,.3,0c0,0,0-.4,0-.5s.2,0,.2-.2c0-.3-.2-.7-.2-1s.2-.2.2-.2c0-.6,0-.8.2-1.4s.3-.1,0-.4c.3-.1.2.1.2.3s.3-.2.4-.3c0-.1,0-.3,0-.4s.3-.5.3-.6c0,0,0-.3,0-.3s.4,0,.4,0-.2-.8-.2-.9.1-.1.2-.2c0-.1-.2-.5.2-.3s0,.3.2.1,0-.1,0-.2c.1-.2.4-.7.4-.8s-.1-.5,0-.5.2,0,.4,0,.4-.7.5-.8c0-.2.2-.8.3-.9s.3-.3.3-.3c0-.1,0-.3,0-.4s.2,0,.3,0c0,0,0-.3,0-.4s.4,0,.5-.3,0-.2,0-.3c.1-.3,1.1-1.8,1.3-2s.2,0,.3-.1,0-.1,0-.2c.2,0,.4,0,.6-.1.1.2-.1.2-.2.3s0,.3,0,.3-.3,0-.4,0-.2.3-.2.4-.4,0-.5.3c-.2.6-.5,1.2-.8,1.8s-.3.3-.3.3c0,.1,0,.3,0,.4,0,0-.4,0-.4,0s.1.3,0,.4-.4-.1-.2.4.3-.2.3-.2c0,0,.3,0,.3,0,0,0,0-.3,0-.4s.2,0,.4,0c.3-.2.3-.9.5-1.2s.3-.3.3-.5l.2.3s.1,0,.1-.1c0-.2,0-.7.1-.8.1-.4.6-.3.6-.4s0-.3,0-.4.6,0,.7-.3.1-.6.2-.7c0-.3.6-.9.6-1,0-.1,0-.6.2-.7s.8-.2.8-.1,0,.5.3.6.2-.2.2-.2c.4-.2.4.2.6.3s.2,0,.3,0c.3.1.3.5.3.5s.7-.2.8.1,0,.3,0,.4.2,0,.2.1c.1.2,0,.5.5.2s.2-.5.2-.5c0-.2.2-.5.3-.6s0-.2,0-.3c.2-.5.7-.2,1-.4s0-.2,0-.2c0,0,.4.1.4.2s0,.5.2.3,0-.3.5-.3c0,.3,0,1.3.5,1.3s.5-.1.5,0,0,.2,0,.3.2,0,.2.1c0,.2.2,1,.2,1.2s-.2.2-.2.2c0,.2,0,.3,0,.5s-.3.1-.1.3.2-.1.2.2-.2.1-.2.2c0,.3-.1.5-.1.5,0,.3.2.7.2,1s-.3.3-.3.4c0,.2,0,.3,0,.5s-.6.4-.6.6c0,.5.2.4.3.4.2.3-.1.3-.1.4,0,.3.2.7.2,1s-.2,0-.2.2c0,.5.3.4.3.5,0,.2-.1.1-.1.2,0,.2.4,3,.5,3.3s.5.7.5.7c0,.1,0,.5,0,.5s.2,0,.3,0,0,.2.1.3c.2.2.6.2.8,0s0-.2.2-.2c.3-.2.6-.2.8-.4s.2-.3.5-.5,1.3-1.1,1.3-1.2,0-.3,0-.4c0-.2.7-.6.8-.8.4-.8.7-.9,1-1.6s1-2.1,1.4-3.1.4-.3.4-.3c0-.1-.3-.5.5-.5s.3.3.5.1,0-.7-.1-.7c0,0-.5.3-.5-.4s.5-1.4.5-1.7.1,0,.1-.1c0-.5-.2-.4-.3-.4-.2-.2.1-.2.1-.3,0-.2,0-.4-.1-.6s.2-.9.2-1c.2-.7,0-.8,0-1.5s.2-.2.2-.2c0-.5-.3-.7,0-1.1s.2,0,.2,0c0,0,0-.3,0-.4s.2,0,.3,0,0-.2.1-.2c.1,0,.6-.1.7,0s0,.2.2.1,0-.3.4-.3c.1.2-.1.2-.2.3,0,.5.2.2.4.3s.2.3.3.3.2,0,.3,0c.3.1.5.4.8.4.2.2-.1.2-.2.3,0,.2.1,0,.2.1s.3,1.5.3,1.7-.2.2-.2.2c0,.5.2.4,0,1s0,.2,0,.3-.2,0-.3,0,0,.3,0,.5-.3.3-.3.3c0,.2.1.5.1.8s-.1.3,0,.6c0,.6.3.5.3.6,0,.2-.1.9-.2,1.2s-.3.1-.1.4.3,0,.3.4-.3,0-.1.4.3.1.3.8-.3.1-.1.6.2,0,.2.2c0,.1,0,.3,0,.5s.3,0,.2.2-.2,0-.2.3.2,0,.2.2c.1.3.2.5.3.7s0,.4,0,.4.8-.1.9-.1,0-.2.2-.2.3,0,.3,0,0-.2,0-.3.2,0,.3,0c1-.8,2.1-1.9,2.8-3.1s0-.3,0-.3c0,0,.2,0,.3-.1s.7-.9.8-.9c0,0,0-.2,0-.3.1-.4,0-.3.1-.7s.5-.5.6-.6c.3-.3,0-.5.1-.8s.5-.4.3-.5-.3,0-.2-.2.1,0,.1,0c0,0,.3-.6.4-.6.1,0,.3,0,.4,0,.2-.2-.2-.2-.2-.2-.2-.2.1-.2.1-.2,0-.2,0-.3.2-.6s.3,0,.2-.2c0,0-.3-.1-.3-.3-.2-.3,0-.2.2-.3.4-.3,0-.6,0-.9s.4-1,.4-1c0-.3-.2-.8-.2-1.1s.2,0,.2-.2c0-.5-.1-1.2,0-1.6s.1,0,.2-.2,0-.3,0-.3c0,0,.5,0,.6-.1s0-.2,0-.3.2,0,.3-.1.2-.4.2-.4.8-.2.8-.1,0,.2,0,.3.3,0,.2.3-.3,0-.2.3c.3,0,.6-.1.8.1s0,.2.1.3c.3.3.3.2.7.6s.2,0,.2.2-.2,0-.2.1c0,.4.2,1,.3,1.4s-.2,1-.2,1c0,.5-.1,1.1-.1,1.5,0,.7,0,1.6,0,2.3s-.1.5-.1.6-.1,0-.1.1c0,.4.2.3.2.3.2.2-.1.2-.1.2,0,0,0,.7-.1.8s-.3,0-.1.2.3-.1.2.3-.1,0-.2.2,0,.2,0,.3-.3,0-.3.1c0,.2.1.4,0,.6,0,.7-.2,1.4-.2,2.2s-.2,0-.2.3.2.2.2.2c.2.2-.1.2-.1.3s0,.3,0,.3-.4,0-.4,0,.1.6.1.7-.3.1-.1.4.2,0,.2.2-.3,0-.1.4.3,0,.2.2c-.4.2-.2.6,0,.9s.4.4.5.5c0,.2,0,.5.4.3s0-.2,0-.2c.3-.2.5-.5.5-.5.2,0,.6-.2.8-.4s.2-.4.2-.4c.2,0,.9-.1.9-.2.2-.2-.2-.2-.2-.2-.2-.6,0-.4.2-.5s.4-.5.5-.5c.1,0,.6,0,.6-.1s0-.3,0-.4.2,0,.3,0,0-.3.4-.3.1.3.3.1-.1-.3.3-.2,0,.3.3.2c0-.2,0-.7,0-.8s.3,0,.5-.1c.3-.1,1-.6,1.4-.8s0-.2,0-.2c.2-.3.2.3.3.4,0,0,.4-.1.5,0s.1.3.3.1,0-.2,0-.2c.2,0,.1.2.2.2.6,0,.6-.3.7-.3.5-.1,0,.5.7,0,0,.3,0,.2-.2.3s-.8.5-.8.5c0,0,0,.3,0,.4s-.2,0-.2,0v-.4c0,0-.3,0-.3,0v.4c0,0,.3,0,.3,0,0,0,.1.2-.2.2s-.2-.3-.7,0-.5.9-.6.9c-.5.2-.5,0-.6,0-.7,0-.6.4-.8.5-.3.2-.5-.1-.3.6-.2.1-.2-.1-.3-.2-.3,0-.8.7-.6.9s.7-.4.6.2-.3.3-.3.4,0,.2,0,.3c0,.2-.6.5-.8.6s0,.1,0,.2c-.2,0-.5,0-.7.1s-.2.6-.4.7-.2,0-.3.1c-.4.3-.9,1.1-1.3,1.4s-.8.3-1.2.6-.3,0-.3,0,0,.2,0,.3c0,.3-.5.3-.5.4s0,.3,0,.4-.3.8-.3.9c0,0-.3.3-.3.3,0,.2.2.3.3.4s.1.6.1.8-.5,0-.2.6c0,0,.6-.3.5.3s-.2,0-.3.2c-.3.3,0,.6,0,.9s-.2.2-.2.3c0,.3.1.4,0,.7-.4,0-.6-.5-.5-.8s.2,0,.2-.2-.2,0-.2-.2.2,0,.2-.1c0-.4-.2-1-.2-1.3s.3-.7.3-.8c0-.2,0-.3,0-.5h-.6c0,.5.2.4.3.6-.4,0-.5.2-.3.6s.2,0,.2,0c.1.1-.3.5-.3.6,0,.5.5,1.6.1,1.9,0,.2.4.5.5.8.4,0-.1-.4.5-.4s0,.2.1.3c.1,0,.5-.3.5.5s-.3.3-.3.3c0,.2,0,.3,0,.5s-.3,0,0,.5.6.2.4.4-.4,0-.4,0l.2,1.5s-.2,0-.2,0c0,.3.2.9.2,1.2s-.3.6-.3.8.2,0,.2.2.3,1.4.2,1.4-.4,0-.4,0,0,.4,0,.5-.3.3-.3.4c0,.5.2.4.3.4,0,.1.1.5.1.6s-.1,0-.2.2,0,.3,0,.3-.4,0-.4,0,.2.7.1.8-.4,0-.4,0c0,0,.3.5-.2.4l.3.2.3.4c-.6,0-1,.3-.8.9s.3,0,.3.4-.3.3-.3.4c0,.1-.4,1-.4,1.1,0,.2.1.5.1.7s-.2,0-.2.2c0,.1.1.5,0,.5s-.2,0-.3,0-.4.3-.4.3c0,0-.3.6-.4.6-.3.1-.2-.1-.3-.1-.1,0-.4.3-.3.4s.4,0,.2.2-.4,0-.5,0,0,.2-.1.2c-.2,0-.7,0-.8.3s0,.5-.2.4,0-.2-.1-.2-.5,0-.7.1,0,.2-.2.2c-.3.1-.3,0-.4-.1s-.2,0-.3,0,0-.3-.1-.3c-.3,0-.9.2-1.2.2s-.6-.3-.6-.3c-.3,0-.7.3-1,0s0-.2-.1-.3c0,0-.8-.5-.8-.5-.1-.2,0-.5-.1-.7s-.4-.2-.4-.2c-.1-.2-.2-.6-.4-.8s-.1,0-.2,0c0-.2.1-.1.1-.2,0,0-.2-1.8-.3-2s-.2,0-.2,0c0-.2.2-.1.2-.2s-.1-.8-.2-.9-.3,0-.2-.2.2,0,.2,0c0-.2-.1-.4-.1-.6s.2,0,.2-.2c0-.5-.1-.5,0-1.1s0-.5,0-.9.3-.1.1-.4-.2,0-.2-.2.2,0,.2-.1c0-.2-.1-.5-.1-.7s.4-.5.5-.6.3-.8.3-.9c0-.2-.1-.5,0-.7s.5-.3.5-.4c0,0,0-.2,0-.3.1-.4.4-1.2.6-1.6s1-1,1-1.5c-.3,0-.7,0-.8.3s-.1.6-.3.8-.3,0-.4,0c0,0,0,.7-.3,1s-.2,0-.2,0c-.1.2.3.4-.3.4,0,.8-.2.6-.2.8s0,.4,0,.6c0,.4,0,.5,0,.9s-.3.3-.3.4c0,.1,0,.3,0,.4s-.2,0-.2.2,0,.6-.1.7-.2-.4-.4-.1.3.4.3.5-.2,0-.2.1c0,.2.1.4.1.6s-.2,0-.2.2c0,.4.2,1,.2,1.3s-.2,0-.3.1c0,0,0,.4,0,.5s-.3.1-.2.3.3-.1.3.5-.2.4-.3.3-.1-.8-.2-1-.2,0-.2-.2c-.2-.3.1-.3.1-.4,0-.3-.1-.6-.1-.9s.2-.2.2-.2c0-.5-.1-.3,0-.8s-.2-.4.2-.4c0-.3-.3-.1-.3-.2s-.1-.4-.1-.5.2,0,.3-.1,0-.2,0-.2.1,0,.1-.1c0-.3-.2-.6-.1-.8s.3-.8.3-.9c0,0,.3-.3.3-.4,0-.2,0-.3,0-.5s.5-.8.5-.8c.3-.1.3.1.5.1ZM187,172.3c-.2,0-.8,0-1,.1s-.4.6-.4.6c-.2,0-.5,0-.6.1s0,.2,0,.4c-.1.4-1.3,1.2-1.4,1.5-.2.9-.8,1.5-1.2,2.3s-.2.8-.3,1c-.1.3-.3.6-.5.9-.4.5-.3.4-.3.9s-.4,2.1-.5,2.7-.3.8-.3.9c0,.6.2,1.7.2,2.3s-.2,0-.2.2c0,.4.2,1.4.3,1.8s.5.3.8.2,0-.2,0-.2c.3-.2.5-.4.8-.5s.7-.3.7-.3,0-.2,0-.3c.2-.5,2-2.5,2-2.8s0-.3,0-.4.7-.8.9-1,0-.3,0-.3c.4-.7.8-1.2,1-1.9s.2-1.1.4-1.4.2,0,.2,0c0,0,0-.3,0-.4s.5,0,.7-.3,0-.2,0-.3c.1-.5.2-1,.3-1.6s.3,0,.1-.2c-.2,0-.3-.2-.5-.3s-.2,0-.3,0c-.4-.1-.2-.4-.3-.6s-.4-.2-.4-.3c0-.2,0-.4,0-.5s-.2,0-.2,0c0-.2.2-.1.2-.2s0-.6-.1-.7-.2,0-.2,0c-.2-.2.4-.3.3-.7s-.3-.3-.3-.3ZM215.1,174.6c-.1-.1-.5.5-.3.6s.5-.5.3-.6ZM214.6,175.5c-.6,0-.3.1-.3.4s-.5.5.3.3c0-.1,0-.3,0-.4s.3,0,.2-.3ZM218.2,175.1c-.6-.1-.3.3-.3.7h.6c0-.3-.1-.7-.3-.7ZM215.1,176.1c-.4,0-.3.6-.3.6s-.4,0-.4,0,0,.4,0,.5-.3.2-.1.5c.3,0,.1-.2.2-.2s.5,0,.5,0,0-.4,0-.5.2,0,.2-.2c0-.2-.1-.5-.1-.7ZM214.2,178c-.2-.1-.5.5-.8.3v.4c.3,0,.2-.2.3-.2.2,0,.4,0,.6-.1,0,0,0-.4,0-.4ZM217.5,180.4s-.4,0-.4,0c0,0,.1.3,0,.4s-.5,0-.2.7.4-.2.4.5-.2,0-.3.1,0,.4,0,.5-.1,0-.1.1c-.2.8.9.1.6-.1s-.2,0-.2-.1.2,0,.2-.1c0-.3-.2-.7-.2-1.1s.2-.2.2-.2,0-.7-.1-.7ZM221.6,181.8c-.2-.1-1,.2-.7.7s.1,0,.1,0c0,.1.2.5.5.5s.2-.2.3-.2.6,0,.7-.1,0-.4,0-.4c0,0-.2,0-.3,0s0-.1-.2-.2-.3,0-.3,0,0-.4,0-.4ZM220.5,183.4h-.5c0,0,0,.6,0,.6h.5c0,0,0-.6,0-.6ZM212.4,190.7c-.1,0-.8,0-.8.1s0,.3,0,.5-.8,1.1-.8,1.1c-.1,0-.3,0-.4,0,0,0,.2.8.2,1l.8-1c0-.5.7-1.1.9-1.5s0-.2,0-.3ZM215.6,190.2c-.2,0-.7,0-.8.1s0,.2,0,.2c-.4.7-.9.8-1.3,1.3s-.3.5-.4.8-.6.9-.6.9c-.1,0-.3,0-.4,0s.2.5-.2.7-.3,0-.3,0c0,0,0,.3,0,.4s-.4,0-.4,0,0,.3,0,.4-.2,0-.3,0-.3.2-.3.3c0,0,0,.2,0,.4s-.4.6-.4.8,0,.4,0,.4-.6,0-.6,0,.1.5,0,.6-.2,0-.4,0-.6.9-.6.9-.2.4-.2.5c0,.2.1.4,0,.5s-.2,0-.3,0,0,.3,0,.5-.3.2-.3.3,0,.3,0,.3-.5.5-.5.6c0,.4.2.3.2.3.2.2-.1.2-.1.2,0,.1,0,.2,0,.3,0,.1-.2,0-.1.4s.2,0,.2.2c.1.3,0,.7.2.9s.2,0,.2.2c.2.5-.1.4-.1.5-.1.2.2.1.2.2.1.3.2.5.4.8s.3.9.6,1.3.3.4.3.4c0,0,.2,0,.3,0s0,.2.1.3.3.1.4.2c.2.2.1.2.5.5s0,.2,0,.2c0,0,.2,0,.3,0,.1,0,.1.2.2.2.2,0,1-.1,1.2-.2s0-.2.2-.2c.1,0,.3,0,.4,0s0-.2,0-.2c.1-.3.6-.7.8-1s0-.3,0-.3c0-.1.4-.4.4-.5.3-.7.3-1.4.5-2s0-.2,0-.3.3,0,.3-.1,0-.3,0-.5.2-.9.3-1.1c.1-.5.4-1.7.4-2.1s-.2-.6-.1-.8c0-.7.1-1.7.2-2.5s-.2-.8-.2-1.1.2-1,.2-1c0-.4-.2-.9-.2-1.4s.2-.1.2-.3c0-.4-.2-.9-.2-1.3s.2-.2.2-.2c0-.3-.2-.8-.2-1.2ZM217.3,195.5c0,0,.2,1.2.2,1.5s-.2,0-.2.2c0,.5.3.1.4,0s0-.2,0-.3c.1-.6,0-1.2,0-1.9s.3-.2,0-.5-.3,0-.2-.2.2,0,.2-.3-.2-.3-.3-.5c-.4,0-.4.7-.2,1s.2,0,.2,0c.2.2-.1.2-.1.3,0,.2.1.5.1.7s-.2,0-.2,0Z"/>
          <path class="st0" d="M153.4,194c.1,0,.6.2.6,0s0-.8.3-.6,0,.1.1.2c.6.4.5.3.9.9s.5.2.6.2c.4-.2.3.1.4.1.2.1.2-.2.2-.2.1,0,.5,0,.5,0s0-.2,0-.3c0,0,.4,0,.5,0,.2-.1.6-.5.9-.7.4-.3.6-.3,1-.4s.2-.3.2-.4c.4-.4,1-.5,1.3-.7s.3-.6.3-.6c.2,0,.3,0,.5-.1s.2-.4.2-.4c.1,0,.3,0,.3-.1s0-.2,0-.3.2,0,.3-.1.1-.3.2-.4c.2-.2.8-.5.9-.6.9-.8,1.7-1.9,2.5-2.5s.1-.3.2-.4.3,0,.3,0,0-.2,0-.4.7-1,.8-1.1c.2-.2.8-.5,1-1s.2-.6.2-.7c.4-.7,1.1-1.8,1.5-2.5s.2-.4.2-.6c.2-.7.5-.9.5-1.7s.3-1.2.3-1.5c0-.5,0-1,0-1.5s.2,0,.2-.2c0-.4-.3-1-.2-1.4s.2,0,.2-.2c0-.6-.3-.6-.3-.7-.3-.9-.3-1.4-.8-2.2s-1-1.5-1.5-2.2-.3-.4-.3-.4-.3,0-.5-.2,0-.2-.1-.3-.6-.3-.6-.4c0-.1,0-.3,0-.4,0,0-.3,0-.4,0s0-.3-.1-.5c-.1-.2-.7-.3-.8-.3,0,0-.5-.4-.5-.4-.6-.1-1.3-.3-1.9-.5s-.7-.4-.7-.4c-.1,0-.3,0-.4,0s0-.2,0-.3c0,0-.3,0-.4,0s-1-.4-1.2-.4-.6.2-.8.1-.7-.2-.7-.2c-.4-.1-.8,0-1.2,0s0-.2-.2-.2c-.5,0-1.2.3-1.7.3s0-.2-.2-.2c-1,0-2.8.1-3.8.4s-.3.4-.7.3c0,.3,0,.6.4.7s.3,0,.3,0c0,0,.2,1.3.2,1.4s-.3.7-.3.8c0,.4,0,1.1,0,1.5s-.3.6-.3.7c0,.3.2.9.2,1.2s-.3,1-.4,1.4c0,.7,0,1.4,0,2s-.2,0-.2.2c0,.3.2.2.2.2.2.2-.1.2-.1.3,0,.4-.2.9-.2,1.1s.2.7.2,1-.3.6-.3.6c0,.3.2.7.2.9s-.2,0-.2.2c0,.3.2.7.2,1s-.1.4-.2.5c0,0-.3.3-.3.4,0,.5.2.4.3.4.2.3-.1.3-.1.4,0,.4,0,.9,0,1.3s-.2,0-.2.2c0,.4.2.3.2.3.2.2-.1.2-.1.3,0,.2.1.4,0,.6s-.2,0-.2.2c0,.2.1.4,0,.5-.1.2-.2-.1-.4.6s-.1,0-.1.1c0,.3.2.6.1.8s-.1.5-.1.6-.3,0-.1.2.2,0,.2,0,0,.4,0,.6c0,.3-.5.3-.2.9s.2,0,.2,0c.2.3-.1.3-.1.4,0,.2.1.5.1.7s-.3.3-.3.5,0,.5,0,.6.2,0,.2.2-.3,0-.1.5.2,0,.3.2c0,.3-.1.2-.2.3-.1.2.2.2.2.2.3.6-.5.7-.5.8,0,.6.3.5.3.6,0,0,.1.7.1.7,0,.1-.8-.1-.5.5s.6.4.6.4c.1.4-.3.4-.2.7s.4.5.6.3v-.4c.1,0,.2.5.2.5.2.3.3-.6.5-.4s0,.2,0,.3.3,0,.3.4-.2,0-.2.2c0,.5.5,1.2-.2,1.2,0,0,0-.5-.3-.4,0,.2,0,.4.1.6s.2,0,.2,0c.2.3-.1.3-.1.4,0,.1.1.5,0,.5s-.2,0-.4,0-.5.7-.3.8c-.3.1-.2-.3-.3-.5s-.3-.3-.4-.2c.2.5-.5.8-.7,1.1s0,.6,0,.8-.1,0-.2.2,0,.3,0,.3-.4,0-.4,0c-.1,0,.1-.7-.8-.3,0-.1,0-.4,0-.5-.2-.2-.1.4-.4.3s-.1-.3-.2-.2c0-.2.2-.1.2-.2,0-.2-.2,0-.2-.1-.1-.1-.6-3.1-.6-3.4s.2-.1.2-.3c0-.7-.3-.9,0-1.7s.3,0,.1-.4-.2,0-.2-.2.2,0,.2-.1c0-.4-.3-1-.2-1.4s.2-1.1.2-1.3c0-.5-.3-1.1-.3-1.5s.3-.5.3-.5c0-.3-.2-.7-.2-1s.2,0,.2-.2c0-.2,0-.3,0-.5s.2,0,.2-.1c0-.2-.2,0-.2-.1-.2-.2.1-.2.1-.2.2-.5,0-1,0-1.4s0-.5,0-.8.3-.1.1-.4-.2,0-.2-.2.2,0,.2-.1c0-.3-.2-.8-.2-1.1s.2,0,.2-.2c0-.4,0-.8,0-1.3s.2,0,.2-.1c.1-.2-.2-.1-.2-.2-.2-.2.1-.2.1-.3,0-.3-.2-.8-.2-1.1,0-1.1.1-2.3.2-3.5s0-1.1,0-1.6.3-.1.1-.3-.2.1-.2-.1.2,0,.2-.1c0-.3-.2-.7-.2-1,0-.8.3-1.9.3-2.7s-.2-.7-.2-1,.3-.6.3-.7c0-.3-.2-.9-.2-1.2s.3-.9.3-1c0-.2-.1-.5-.1-.7s.3-.3,0-.7c-.3,0-.8,0-1.1.2s0,.2-.2.2c-.1,0-.3,0-.4,0s-.4.6-.6.7-.5,0-.5,0,0,.3,0,.3c-.2,0-.4,0-.6,0s-.2.3-.2.4-.6.3-.7.4c-.5.4-.8,1-1.2,1.5s-.4.3-.4.4c0,.3.2.7.1.9s-.3.5-.3.6,0,.3,0,.3-.2,0-.3,0,0,.2-.1.2c-.2,0-.7,0-.7.1s.1.5-.2.6-.7.1-.7.1c-.1,0,.2-.6-.5-.3-.2-.3.1-.4.1-.6,0-.3-.2-.2-.3-.3-.2-.3.1-.4.1-.4,0-.2,0-.4,0-.6s.3,0,.1-.4-.2,0-.2-.2-.3-1.5-.3-1.7.2,0,.2-.2c0-.1,0-.3,0-.4s.2,0,.2,0c.3-.3.1-.6.1-.6s.2,0,.4,0,.3-.5.4-.6c.2-.2.8-.7,1-1s1-.4,1.3-.9,0-.2,0-.2.9-.5,1-.6c.4-.2.8-.3,1.2-.6.9-.6,1.7-.9,2.8-1.2s0-.2.2-.2c.2,0,.5,0,.7-.1s.3-.5.3-.5c0-.3-.2-.8-.2-1.1s.3-.5.3-.6c0,0,0-.3,0-.3s.4,0,.4,0c0,0,0,.7.3.6,0-.2,0-.5-.1-.7s-.3,0-.3-.4.9-1.1.8-.3-.2,0-.2,0l.4,2.2c.6,0,.2-.3.5-.4,0,.6.5.8,1,.5s0-.2.2-.2,0,.3.2.2,0-.2.3-.3.1.2.3.2c.7,0,1.6-.4,2.3-.4s.2.2.2.2c.2,0,.5-.1.7-.1s.1.3.3.1-.1-.2.2-.2.2.2.2.2c.5,0,1.3-.1,1.7,0s1.1.3,1.4.4.7-.2,1-.2,0,.2.2.2.2,0,.4,0,.3.3.3.3c.4,0,.8,0,1.1.3s0,.2,0,.2.6,0,.8.1c.5.1.6.2,1,.4,1,.5,2,1,2.9,1.7s1.8,1.7,2.7,2.7.3.2.4.2c0,.1,0,.3.1.3s.2,0,.3,0,.3.6.4.7c.4.4.2,0,.5.7s.7.7.7.9c.2.6.5,1.1.7,1.7s.2,0,.2.1c.2.4-.1.5-.1.5,0,.4.2.3.3.4.1.3,0,.8.2,1s.2,0,.2.2-.2,0-.2.1c0,.4.3,1.3.3,1.8s-.2.1-.2.3c0,.3.2.2.2.2.2.2-.1.2-.1.2-.2.5-.2,1.2-.3,1.9s0,.8-.1,1.6-.6,2-.8,2.3-.4.5-.4.5c0,.2,0,.5,0,.6s-.4,0-.4,0,.2.5-.2.7-.3,0-.3,0,.1.5,0,.6-.6,0-.6,0,0,.2,0,.3-.3.1-.1.3.3,0,.3.4c-.7,0-.6.3-.8.5s-.2,0-.3.1c-.1.1-.4.8-.5.9s-.3,0-.4,0,0,.2,0,.3-.1,0-.2.2,0,.3,0,.3-.2,0-.3,0,0,.2-.1.2c-.7.3-.3.3-.7.7s-.7.5-.8.6c-.2.2-.8,1.5-1,1.6-.3.2-1,.6-1.3.9s-.3.6-.4.6c-.1,0-.3,0-.5.1s-.1.5-.3.4,0-.3-.3-.1-.1.4-.6.3l.3-.6c.5,0,.4-.2.4-.3s.2,0,.2-.2c.2,0,.7-.4.9-.6s.1-.4.4-.4v-.2c-.9.5-.1-.8.4-.7l-.2-.5c-.5-.1-.5.5-.5.6s-.9.5-1,.6-.1.3-.2.4-.2,0-.2,0c0,0,0,.3,0,.4s-.6,0-.7.1-.8.7-.8.7c-.1,0-.5,0-.5,0s0,.3,0,.4-.2,0-.3,0c-.3.2-.5.8-.5.8-.1,0-.3,0-.5,0s0,.2-.1.2c-.2,0-.3,0-.5.1s-.2.4-.2.4c-.2,0-.5,0-.6.1s0,.2,0,.2c-.4.2-1.6.8-2,1s-.9,0-1.3.2-.2.4-.3.5c-.3,0-.2-.1-.3-.1s-.3,0-.3,0,0-.6-.1-.8c.4-.2.3.1.6,0,.1-.6-.6-.5-.7-.5s0-.3,0-.4c-.2-.2,0,.3-.3.3s-.3-.5-.3-.6-.2,0-.2,0c0-.2.1-.1.2-.2s0-.2,0-.3c0,0-.2,0-.2,0,0,0-.1-.7-.1-.8,0-.2.1-.1.2-.3s0-.2,0-.3c.2-.4.7-.3,1-.4s0-.3.2-.2c.2.5-.3.5-.4.7-.2.2-.6,1-.6,1.3ZM149.7,182c-.8.3,0,.7,0,.5v-.5ZM149.5,184.3c-.3,0,0,.2-.2.4s-.3,0-.1.4.2,0,.2.2c.2,0,.4-.4.3-.6s-.4,0-.3-.4ZM171.4,182.7c-.6,0-.3.3-.3.7.6,0,.3-.3.3-.7ZM149.4,187.5c-.4,0-.5,0-.3.4s.4,0,.1.3-1.1,0,0,.4l-.4.3h.4c.2.5-.3.3-.4.4s.2,1.3.4,1.4c.6-.2.2-.8.2-1.3s.2,0,.2-.2c0-.3-.2-.7-.2-1s.3,0,.1-.4-.2-.2-.3-.2ZM170.3,184.3c-.2,0-.1.2-.2.2-.1,0-.4,0-.5,0,0,.1.2.4.2.4s-.2,0-.2,0-.3.4-.3.4c-.1.4.3.3.3.7l.3-.5v-.5c0,0,.2.4.2.4.7,0,.4-.4.5-.8s.2,0,.2-.1c0-.2-.1-.1-.2-.2s0-.1,0-.1ZM169.4,186.8c-.4,0-.5.1-.4.5h.5c0,0,0-.5,0-.5ZM167.1,188c-.3,0-.2.3-.4.4-.2.2-.5.4-.8.6l-.3.6c.4,0,.8-.8.7,0,.5,0,.7-.3,1.1-.6,0-.1-.3-.3-.3-.3-.2,0-.3.7-.6.5s.2-.6.2-.6c.3-.2.4.1.3-.7ZM149.6,191.1c-.6-.1-.3.2-.3.5s-.2,0-.2.2c0,.3.3.6-.2.6,0,.3.3.1.3.2s0,.4,0,.5c.6,0,.3-.1.3-.5s.2,0,.2-.2c0-.3-.2-.6-.1-.8s.2,0,.2-.2-.2-.2-.3-.2ZM149.1,194.5c0,0-.2,0-.2,0,0,0,0,.6,0,.6s.2,0,.3,0,.5.5.3-.3c-.1,0-.4.1-.5,0s0-.3,0-.4c.3-.1.1-.2.2-.6s.3,0,.1-.3h-.5c0,.3,0,.6.1.9Z"/>
          <path class="st0" d="M163.9,192.2s-.8.3-.9.2,0-.2,0-.3c.4,0,.4-.4,1-.4,0,0,0,.1,0,.2-.3.1-.1.2-.2.2Z"/>
          <path class="st0" d="M158.3,195.4s0,.2.1.2c.2,0,.4-.1.6,0s.1.3.3.1,0-.3.4-.3v.6c-.2,0-.5.1-.7.1s-.3-.3-.7,0c.2.6,0,.5-.2.9s0,.2,0,.2c0,0-.5,0-.7.1s0,.3-.2.2c-.2-.7,0-.4.2-.5s.2-.2.2-.2c.1-.2-.2-.2-.2-.2-.2-.2,0-.2.1-.3.3-.4.3-.3.5-.5s.1-.5.4-.4Z"/>
          <path class="st0" d="M230.9,175c0,0,0,.3,0,.4,0,0,1.4-.1,1.6-.2s0-.3.4-.3c0,0,0,.2,0,.2,0,0-.5.6-.6.5-.3-.5-.3.1-.5.2s-.3,0-.3.1,0,.6-.4.5-.3-.8-.2-1.1c-1.1.4-.5-.7-.2-.5Z"/>
          <path class="st0" d="M161.9,194s.3.3.3.4c0,.3-.3.4-.5.5s0,.1,0,.2c-.2,0-.6,0-.8.1l.6-.6c.1-.1.3-.7.5-.6Z"/>
          <path class="st0" d="M234.8,172.5c0,0,0,.3,0,.3.5,0,.2-.3.3-.4.2,0,.6-.1.7.1,0,.4-.5.3-.8.4s0,.3-.4.3-.3-.2-.3-.3l.3-.4Z"/>
          <path class="st0" d="M161.6,193.7l-.3.4c-.3-.1-.6.5-.9.3s.4-.5.5-.5,0-.2,0-.2c.1,0,.4,0,.6-.1Z"/>
          <path class="st0" d="M162.8,192.8c-.3,0-1.1,1-.8.2s.6-.6.8-.2Z"/>
          <path class="st0" d="M184.5,169.8c.2.2,0,.6-.3.5s0-.6.3-.5Z"/>
          <path class="st0" d="M184.3,170.8c.1,0,0,.3-.2.2s0-.3.2-.2Z"/>
        </g>
      </g>
    </g>
  </g>
</svg>