<?xml version="1.0" encoding="UTF-8"?>
<svg id="Layer_1" xmlns="http://www.w3.org/2000/svg" version="1.1" viewBox="0 0 182.7 182.7">
  <!-- Generator: Adobe Illustrator 29.8.2, SVG Export Plug-In . SVG Version: 2.1.1 Build 3)  -->
  <defs>
    <style>
      .st0 {
        fill: #14301e;
      }

      .st1 {
        fill: #270e0a;
      }

      .st2 {
        fill: #112b1a;
      }

      .st3 {
        fill: #f4836a;
      }

      .st4 {
        fill: #fff;
      }

      .st5 {
        fill: #fadc67;
      }

      .st6 {
        fill: #122718;
      }

      .st7 {
        fill: #f37451;
      }

      .st8 {
        fill: #5aad64;
      }

      .st9 {
        fill: #2e1814;
      }

      .st10 {
        fill: #0e1e40;
      }
    </style>
  </defs>
  <circle class="st4" cx="91.3" cy="91.3" r="91.3"/>
  <g>
    <path class="st10" d="M96.6,29.6c-6-1.3-9.5-2.3-10.1-1.8-.6.5-9.9,16.7-7.9,18.4,2,1.7,8.6,6.3,8.6,6.3,0,0,10.7-4,12.7-4.9,2-.9-3.3-18.1-3.3-18.1Z"/>
    <path class="st10" d="M108.1,87.4c2.4-6.8,17.6-20.4,28.7-6-7.5,17.2-15.7,3.3-28.7,6h0Z"/>
    <path class="st10" d="M118.1,63.5l-3.9-14c-5.8,2.9-9.7,7.8-14.7,9.3,4.5,2.2,12.1,5.6,19.6,5.6l-1-.9Z"/>
    <path class="st10" d="M112.1,42.1l-1.7-1.8c-4.5,3.7-4.6,11-3.8,15.9,1.7,0,5.3-1.4,8.5-3.7l-2.9-10.3Z"/>
    <path class="st10" d="M112.1,42.1l-5.1-5.3c-5.7,8.2-9.5,19.4,2.1,30.2,3.5-3.5,5.8-6.7,7.2-9.6l-4.3-15.2Z"/>
    <path class="st10" d="M102.8,32.3c-4.5,2.6-3.5,14.3-7.8,19.4,5.5-.1,14.4-5,15.1-11.7l-7.3-7.7Z"/>
    <path class="st10" d="M124,69l-5.8-5.5-.4-1.5c-9.7-3.8-19.9,6.1-21.8,11.5,12.6-2.6,20.7,10.4,28-4.5Z"/>
    <g>
      <path class="st5" d="M120.3,138.1v-.8c.1,0-1.6-1.3-1.6-1.3l1.7.8,1.3-10.6,1-9.2c-2.1,3.7-4.4,7.5-6.8,11.2l1.8,1.8-2.6-.6c-2.1,3.2-4.3,6.4-6.5,9.5l2.9,3-3.4-2.2c-1,1.4-2,2.9-3.1,4.3l2.2,3.1-3.2-1.8c-1.5,2.1-3.1,4.2-4.5,6.1l3,2.8-3.6-2c-.8,1-1.5,2-2.2,3l3,3.2-3.4-2.7c-.9,1.2-1.7,2.3-2.5,3.4l.9,1.1-1.3-.6c-.3.4-.5.7-.8,1.1l1.4,1.4-2-.6c-3.3,4.5-5.8,8-6.9,10,1.5-.3,2.9-.8,4.3-1.3v-.5c-.1,0,.5.3.5.3,4.1-1.5,7.8-3.6,11.2-6.1l-2-1.8,2.6,1.4c1.7-1.3,3.2-2.7,4.7-4.2l-2.4-2.5,3.5,1.4c1.1-1.1,2.1-2.3,3-3.5l-3-1.8,3.4,1.3c.5-.7,1.1-1.4,1.6-2.2l-3-1.8,3.2,1.6c1-1.5,2-3,2.9-4.5l-2.5-1.9,3.1,1c1.5-2.7,2.9-5.5,4.1-8.4Z"/>
      <path class="st5" d="M127.5,107.5c-.3.7-.6,1.3-.9,2l.8-.7c0-.4,0-.9.1-1.3Z"/>
    </g>
    <g>
      <path class="st3" d="M118.7,136.8c.6,0,1.1,0,1.7,0v-.5c-1.2,0-2.4-.1-3.5,0,6.9-4.6,1.2-12.3-1.8-13.7-.5,1.4-6.1,9.3,1.2,13.8-1.8,0-3.5.3-5,.7-.7.2-1.4.4-2.2.6,6.3-5.4-.5-12.5-4.7-12.7.2,1.9-1.4,5.3-.9,8.2-3.5-2.6-8.6-1.9-10.6-.3,1.8.8,4.7,6.4,8.3,7.6-.6.3-1.1.6-1.4,1-.6.3-1.2.6-1.8,1-.8-8.3-10.5-7.3-13.4-5.3.5.6,1.3,3.1,3.4,4.9-3-1.3-7.1,0-9.3.6,1.4,2.7,4.6,8.2,10.2,6.3-.9.8-1.9,1.7-2.8,2.7,0,0,0,0,0,0-5.2-8.7-13.4-1.4-14.8.9,2.2-.3,7.3,4,10.9,3.6-.3.4-.6.8-.9,1.2-9.4-2.4-7.8,7-9.8,10.9,1-1.4,14.5-1.1,10.4-10.1.7-.9,1.3-1.8,2-2.7.4-.3.8-.8,1.2-1.5.1-.1.3-.3.4-.4-.5,3.3,3.1,6.6,4.4,10.6,2.1-1.7,6.6-11.7-.6-14.5,1.1-1,2.2-1.9,3.3-2.8-2.9,4.7,2.6,8.6,7.1,10.8.6-1.8,1.6-5.5.5-8.5,1.4,2.1,3,4.1,3.2,5.2,2.6-2,5.3-9.5-.7-13.5,1,0,2-.4,3-1.4,1-.4,2-.7,2.9-1-1.9,3.2-1.3,5.2.2,6.6,1.3,5.1,5.9,5.3,7.8,7.7,0-1.7.1-4.3-.7-6.7,0-.2,0-.4,0-.7,1.3,1.9,3.3,3.5,5,4.5,1.5-1.9,3.6-10.8-2.2-12.9ZM108.1,138c-.5.2-1.1.4-1.7.6,0,0,.1-.1.2-.2,0-.4-.2-.8-.4-1.2.5.3,1.1.6,1.8.8ZM89.6,143.1c1.5.7,3.5,1.1,6.1.7-1.4.9-2.8,1.9-4.2,3-.3-1.7-1-2.8-1.8-3.6ZM95.3,144.8c.7-.5,1.5-1,2.2-1.4.2,0,.3,0,.5-.1,0,0,0,0,0-.1.3-.2.5-.3.8-.5-.7,1.4-.4,3,.3,4.6-.8-1-2.1-1.9-3.8-2.4ZM111.4,137.5c1.6-.4,3.3-.6,5.1-.7-.9,1.1-1.5,2.2-1.7,3.3-.7-1.3-1.9-2.3-3.7-2.5.1,0,.2,0,.4,0Z"/>
      <path class="st3" d="M121.5,128.6c-.5,1.2-.8,2.5-.5,3.8l.5-3.8Z"/>
    </g>
    <path class="st8" d="M114.4,85c-.9-.5-2.6,2.3-6.7,4.8,0,0,0,0,0,0,.3-.5-5.1-3-8-4.4-3-1.5-12.7-3.4-16.6-3.1,3.3.7,14.2,5.5,17.2,7.3,2.2,1.4,6.5.8,7.3.4-.7.4-1.5.8-2.3,1.2-.9.4-1.9.9-3.1,1.4-.5-.6-4.3-2.1-7.1-2.9-4-1.2-11-2.9-14.9-2.7,3.3.7,10.8,4.4,14.1,5.7,1.7.6,4.9.7,6.7.4-1.4.6-3,1.3-4.7,1.9-.8-.8-4.1-2.5-6.5-3.6-3.8-1.7-11.2-4.5-15-4.7,3.2,1.1,8.2,5.2,13.4,7.5,1.6.7,5,1.2,6.9,1.3-1.1.4-2.2.8-3.3,1.2-.5-.7-4.2-2.4-6.8-3.6-3.8-1.7-10-3.1-13.9-3,5.5,1,9.1,2.9,13.1,5.7,1.4,1,4.5,1.3,6.4,1.3,0,0-.1,0-.2,0-1.6.5-3.5,1-5.5,1.6-.3-.6-3.6-2.8-6-4.4-3.5-2.3-13-5.2-16.8-5.8,5.3,1.9,8.8,6.1,15.1,8.6,1.9.7,5.3,1.6,6.9,1.8-1.4.4-2.9.7-4.3,1-.6-.9-3.4-3.1-5.9-4.2-4.9-2.2-15.3-4.6-19.1-5.2,5.3,1.9,11,4.5,17.5,8,1.5.8,4.3,1.5,6.1,1.7-1.5.3-2.9.6-4,.8-.9.1-1.7.3-2.6.4-.7-.9-3.5-3-5.8-4.1-5-2.5-14.1-4.9-18-5.5,5.3,1.9,9.5,4.9,15.9,8.4,1.3.7,3.6,1.2,5.5,1.5-2.8.4-5.4.7-7.7,1-.6-.8-3.6-2.8-5.9-4.2-5.1-3.1-12.8-5.6-16.7-6.2,4.5,2.4,7.4,5.4,14,8.7,2,1,4.5,1.6,6.3,1.9-2.6.2-4.5.4-5.5.3-.1,0-.2,0-.3,0-.4-.6-3.7-2.6-5.8-3.9-4.4-2.7-10.5-4.8-13.9-5.3,3.9,2.1,5.8,4.1,11.6,7,2.1,1.1,5.4,2.1,7.1,2.4,0,0,0,0,0,0-1.8-.3-5.1-.6-7.4-1-6.6-1.1-14.4-1.2-19.2-.6,5.4,1.1,8.2,2.6,16.8,3.6,1.9.2,4.3,0,6.5-.2-5.7,1.4-10.6,3.1-14.3,4.7,5.5-.5,8.1-.2,16.5-2.1,3.5-.8,8.6-3.2,10-4.2,1.7-.2,3.5-.4,5.3-.6-1.8.6-3.7,1.3-5.2,2-9,4.1-15,6.6-20.3,9.6,6.5-1.6,10-1,19.5-4.5.5-.2,1-.4,1.6-.7-4.6,5-6.1,8-9.4,11.9,5.5-3.8,6.3-4.6,14.1-11.1,3.3-2.8,7.4-7,8.2-8.5,1.8-.3,3.6-.6,5.3-1-2,1-4.2,2.4-5.6,3.8-7.1,7-8.4,7.2-12.4,11.4,5.8-3,10-4.4,14.1-7.6.6-.5,1.3-1,1.9-1.6-4.1,5.3-6.3,7.8-9.4,12.2,5.3-3.9,9.4-6.9,13.3-10.5,3.2-3,6.4-8.2,6.8-9.8.4-.1.7-.2,1.1-.3,1.4-.5,2.9-1,4.4-1.5-1.9,1.4-5,4.2-7,6.4-4.3,5-6.7,8-10.5,12.1,5.5-3.3,9.2-5.4,13.1-9,3.5-3.3,6.2-9.1,6.1-10.2,2.2-.9,4.3-1.8,6.3-2.7-1.2,1.3-2.7,3-4.1,4.7-4,5.1-5.2,8.8-8.1,13.9,5.1-3.8,6.3-5.3,9.8-9.4,2.8-3.3,4.8-8.5,5-10.3,1.2-.6,2.3-1.1,3.2-1.6-.4.8-.8,2-1.2,3.5-.8,3-1.5,5.2-2.2,10.3,2.9-4.8,2.7-4,4.5-8,1.5-3.2,1.1-5.6.5-6.6.5-.3.9-.5,1.2-.7,2-1.2,4.4-3,3.2-3.9ZM83.6,101.3c.6-.7,1-1.3,1.2-1.7.6-.1,1.2-.3,1.8-.5-.9.6-2,1.3-3,2.2Z"/>
    <path class="st5" d="M83.3,47.7c3.6,1.6,11.4,7.7,13.3,10.4,1.9,2.6,5.6,7.3,5.1,7.6-.5.3-5-1.2-6.5-3.6-1.8-3-9.3-12.2-11.9-14.4h0Z"/>
    <path class="st5" d="M92.6,77.2c2.9-4.2,4.5-5.8,6.6-8.1,2.6-2.8,4.1-3.7,4.4-3.2.4.6,0,3.5-3.4,6.2-3.5,2.8-2.9,2.1-7.7,5.1h0Z"/>
    <path class="st5" d="M109.8,64.5c-.7-1-4.4,1.6-10.8,1.3-1,0-2.1-.1-3.4-.2-.1-.8-2.9-3.8-5-5.8-3-2.9-8.4-7.7-12-9.2,2.6,2.2,7.6,8.9,9.9,11.5,1.2,1.3,4.1,2.8,5.7,3.4-1.5-.1-3.2-.3-5-.5-.3-1.1-2.5-4.1-4.1-6.2-2.6-3.3-7.9-9.1-11.2-11.1,2.3,2.5,4.9,8.4,8.5,12.8,1.1,1.4,3.9,3.4,5.6,4.3-1.1-.1-2.3-.3-3.5-.5-.1-.8-2.6-4.1-4.4-6.3-2.6-3.3-7.5-7.4-11-9,4.5,3.4,6.8,6.8,9,11.1.8,1.6,3.4,3.3,5.1,4,0,0-.1,0-.2,0-1.6-.3-3.6-.7-5.6-1.1,0-.7-1.9-4.1-3.3-6.6-2-3.7-9.1-10.6-12.3-12.9,3.8,4.1,5,9.5,9.5,14.6,1.3,1.5,4,3.9,5.3,4.7-1.5-.3-2.9-.7-4.3-1,0-1-1.6-4.3-3.3-6.4-3.4-4.2-11.5-11.1-14.6-13.4,3.8,4.1,7.7,9,11.8,15.1,1,1.4,3.1,3.3,4.6,4.3-1.5-.4-2.8-.8-3.9-1.1-.8-.3-1.7-.6-2.5-.8-.2-1.1-1.7-4.2-3.3-6.3-3.3-4.5-10.3-10.8-13.5-13.1,3.8,4.1,6.2,8.7,10.3,14.8.8,1.2,2.7,2.8,4.2,3.8-2.7-.9-5.1-1.8-7.3-2.6-.2-1-1.9-4.1-3.3-6.4-3.1-5.1-8.8-10.9-12-13.2,2.9,4.2,4.1,8.2,8.5,14.1,1.3,1.8,3.2,3.5,4.7,4.6-2.4-1-4.2-1.8-5-2.3,0,0-.2,0-.3-.1,0-.7-2.1-4-3.4-6.1-2.7-4.4-7.2-9.1-9.9-11.1,2.5,3.7,3.3,6.3,7.1,11.5,1.4,1.9,3.9,4.3,5.3,5.4,0,0,0,0,0,0-1.5-1.1-4.2-2.9-6.2-4.3-5.4-4-12.2-7.6-16.8-9.4,4.2,3.5,6.1,6.1,13.3,10.9,1.6,1.1,3.8,2,5.9,2.8-5.7-1.3-10.9-2.1-14.9-2.3,5.1,2.1,7.3,3.5,15.7,5.7,3.4.9,9.1,1.1,10.8.8,1.6.7,3.3,1.3,5,1.9-1.8-.3-3.9-.5-5.6-.6-9.9-.5-16.3-1-22.5-.7,6.5,1.5,9.3,3.7,19.4,5,.5,0,1.1,0,1.7.1-6.4,2.3-9.1,4.3-13.9,6.3,6.6-.8,7.7-1.2,17.6-3.5,4.2-1,9.8-2.8,11.2-3.8,1.7.6,3.5,1.1,5.1,1.5-2.2,0-4.8.2-6.7.8-9.5,3-10.8,2.6-16.2,4.5,6.5,0,10.9.7,16-.3.8-.2,1.6-.3,2.5-.6-6,2.8-9.1,4-13.9,6.5,6.5-1,11.5-1.8,16.6-3.3,4.3-1.2,9.5-4.3,10.5-5.6.4,0,.7.1,1.1.2,1.5.3,3,.5,4.6.6-2.4.4-6.4,1.4-9.1,2.5-6.1,2.5-9.7,4.1-14.9,5.9,6.4-.4,10.6-.5,15.7-2,4.6-1.3,9.7-5.2,10.1-6.3,2.4.2,4.7.4,6.8.5-1.7.5-3.8,1.4-5.8,2.3-5.9,2.7-8.7,5.4-13.6,8.6,6.3-1.1,8-1.9,13-3.9,4-1.6,8.2-5.4,9.2-6.9,3.3,0,5.8,0,6.8,0,2.4-.1,5.3-.7,4.6-2ZM74.9,64.9c.8-.4,1.5-.7,1.9-1,.6.1,1.2.3,1.8.4-1.1,0-2.4.3-3.7.5Z"/>
    <path class="st5" d="M118.6,107.1l-5.9,2.1c0,0-.1,0-.1,0-.3.3-1.6,1.8-1.7,3.8-.1,2.3-.5,3.4-1.5,3.9-.6.3-1.1.4-1.4.4-.2,0-.3,0-.4.3-.2.7-.9,2.7-1.9,3.5-.9.7-2.3,1.7-3.1,2.1-.2.1-.6,0-.5-.3,0-.3,0-.7-.2-.6-.4.1-.5,1.5-1.1,2.1-.3.4-1.3.8-2,1.1-.3.1-.6-.2-.5-.5.3-.7.7-1.8,1.1-3,.7-2,.8-4.6,0-3.1-.6,1.5-2.5,6-2.7,6.5-.3,1-.6,2.5-1.2,2.6-.9.2-3,.8-4,1.6-1,.8-1.6,1.1-1.6,1.1,0,0,3.3-6.3,3.7-7.8.5-1.4-.3-1.4-.6-.8s-3.2,6.5-3.2,6.5c0,0-1.1,2.1-1.9,2.7-.4.3-1.7,1-3.1,1.6-1.6.8-3.3,1.6-3.5,1.1-.1-.2.4-1,1-1.8.7-1.1,1.5-2.3,1.2-2.3-.6,0-1.3,1-1.9,2.1-.7,1.2-1.1,2.1-1.8,2.5-.5.3-3.2,1-4.7,1.4-.6.2-1,.3-1.1,0-.3-.7.4-1.1,2.5-4.2.4-.7,1.5-2.6,2.2-3.8.8-1.1.4-1.9-.4-.9-.9,1.1-4.5,6.2-5,7-.5.8-1.1,1.9-3.2,2.4-2.1.5-4.5,1.2-4.7.8-.2-.5,2.1-2.6,2.5-3.1.4-.5,1.7-2,1.4-2.2-.4-.2-1,.2-1.6.8-.6.6-1.4,1.7-2.2,2.5-.8.8-2.5,2.5-4.7,2.2-2.2-.3-3.8-.5-3.8-.9,0-.4.3-.7,1.7-1.5.8-.5,1.4-.5,1.2-.8-.1-.3-.8-.2-1.8.2-1,.5-2.1,1.2-4,.6-1.9-.7-4.6-1.9-4.6-2.2,0-.3.5-.5.7-.7.2-.1.3-.3.2-.5,0-.1-.4-.3-1,0-.5.2-1.5.5-2.9.1-1.3-.4-2.3-.9-2.3-1.2,0-.2.8-.8,1.5-1.2.7-.5,1.9-1.4,2.8-1.3,1,.1,1.7.2,1.8,0,.2-.2,0-.5-.2-1-.2-.5-.4-.7-.3-.8,0-.1.8-.2,1.1-.4s.5-1.1,1.2-1.4,1.1-.2,2.4.5c1.3.7,2.6,1.2,2.7.9.2-.2,0-.6-1-1.2-1-.6-1.9-1.3-1.9-1.5,0-.6,1.2-1.2,1.6-1.5s1.9-1.3,3.1-.7c1.2.6,3.2,2,3.6,1.8.3-.2.6-.6,0-1.2-.7-.6-1.4-1.2-2.4-1.3-1,0-1.4-.1-1.5-.5,0-.3.7-.8,2.2-1.6,1.4-.8,3.6-2.4,5.4-1.2,1.8,1.2,3.8,2.3,4.7,2.8.9.5,1.2.3,1.2.2,0-.1-.4-.8-.9-1.2-.5-.3-2.3-1.4-3.1-1.9-.8-.4-2.8-1.4-2.7-1.6s1.7-.9,2.2-1c.5-.2,2.3-.9,2.4-1,.7-.3,1.1-.3,2,.1.3.1,3.7,2.2,4.5,2.7.8.5,3.2,2,3.7,2.2.5.2,1.3.7,1.5.4.3-.3,0-1.4-1.1-2-1.2-.6-2.9-1.8-3.9-2.2-1-.4-4.2-1.6-4.1-2,0-.4,2.1-1.1,2.5-1.3.5-.2,1.5-.7,3,.1,1.5.8,3.6,1.6,4.5,1.8.9.2,1.5.4,1.8,0,.3-.4-.4-.8-1-1-.5-.2-4.6-1.6-5-1.7-.5,0-.4-.4,0-.7.4-.3,1.4-1,2.4-1.5.8-.4,2.5-.7,4.2,0,1.1.5,3,1.2,4.3,1.7,1.3.5,2.7,1.3,3,1.1.2-.2.2-1-.7-1.6-1-.6-3.2-1.7-3.8-1.9-.6-.2-1.6-.5-1.9-.7-.3-.1-.4-.6,1.2-.9,1.6-.3,3.3.6,3.6.7s.8.3.9.1c.1-.1-.6-.6-1.2-.8-.6-.2-1.3-.3-1.3-.5,0-.1.8-.7,1.5-.7.6,0,1.2,0,3,.8,1.8.8,3.2,1.2,3.5,1.3.4.1.7.2.8,0,.1-.2.1-.6-.4-.9-.5-.3-2.1-.7-2.5-.9-.3-.2-.4-.5,0-.8.4-.2,3.1-1.3,3.9-1.4.8,0,2.6.9,3.1,1.3.6.4,1.2.7,1.3.6.2,0,.1-.4-.1-.8-.3-.4.4-.5.9-.7.6-.2,1.7-.8,2.3-.1.6.7,2.5,2.6,3.4,3.2.8.5,1.7,1.2,2.1,1.4,0,0,6-2.2,6-2.2,0,0,.5-.3.6.1.1.4-.3.6-.3.6h0Z"/>
    <path class="st8" d="M60,147.8c1.5,0,3,0,4.5,0v-.5s.5.5.5.5c4.3-.3,8.5-1.3,12.5-2.9l-1.4-2.3,2.1,2.1c2-.8,3.9-1.7,5.7-2.8l-1.6-3.1,3,2.3c1.3-.8,2.6-1.7,3.9-2.6l-2.4-2.6,3,2.2c.7-.5,1.4-1.1,2.1-1.6l-2.4-2.5,2.6,2.4c1.4-1.1,2.7-2.3,4-3.6l-1.9-2.5,2.7,1.8c2.4-2.3,4.6-4.9,6.7-7.5l-1.4-1.9,1.7,1.4c6.1-7.9,11-17.1,14.4-26.5-4.6,5.5-10.4,11.3-16.7,16.8l1.3,2.3-2.4-1.3c-2.9,2.5-5.9,5-8.8,7.4l2,3.6-2.7-3c-1.4,1.1-2.7,2.2-4.1,3.3l1.3,3.6-2.6-2.5c-2.1,1.6-4.1,3.2-6,4.7l2.1,3.5-2.9-2.8c-1,.8-2,1.5-2.9,2.3l2.1,3.9-2.6-3.5c-1.2.9-2.3,1.7-3.3,2.6l.5,1.3-1-.9c-.4.3-.7.5-1,.8l1,1.7-1.8-1.1c-4.4,3.4-7.7,6.1-9.4,7.8h0Z"/>
    <path class="st8" d="M69.7,127.8c1.2-.3,2.4-.7,3.6-1.2v-.4c-.1,0,.4.3.4.3,3.4-1.3,6.5-3.2,9.3-5.4l-1.7-1.5,2.2,1.1c1.4-1.1,2.7-2.3,3.9-3.6l-2.1-2.1,2.9,1.1c.9-1,1.7-2,2.5-3l-2.6-1.5,2.9,1c.4-.6.9-1.2,1.3-1.8l-2.6-1.4,2.7,1.3c.8-1.2,1.6-2.5,2.4-3.9l-2.2-1.5,2.6.8c1.3-2.5,2.5-5,3.5-7.7l-1.6-1.2,1.8.7c2.9-7.9,4.6-16.5,5-24.9-2.3,5.6-5.6,11.6-9.3,17.7l1.6,1.5-2.2-.4c-1.7,2.7-3.5,5.5-5.2,8.1l2.5,2.4-2.9-1.7c-.8,1.2-1.7,2.4-2.5,3.6l1.9,2.5-2.7-1.4c-1.3,1.8-2.5,3.6-3.7,5.3l2.5,2.3-3.1-1.6c-.6.9-1.2,1.7-1.8,2.5l2.6,2.7-3-2.2c-.7,1-1.4,2-2.1,2.9l.8.9-1.1-.5c-.2.3-.4.6-.6.9l1.2,1.1-1.7-.4c-2.7,3.8-4.7,6.8-5.6,8.6h0Z"/>
    <path class="st1" d="M92.8,72.7c6.1-3.8,26.5-5,26.2,13.2-16.6,8.8-14.4-7.2-26.2-13.2h0Z"/>
    <path class="st8" d="M95.9,45s0,0,0,0c0-.5,0-1,0-1.5,0,0,0,0,0,0,0-.5,0-1,0-1.4,0,0,0,0,0-.1,0-.5-.1-.9-.2-1.4,0,0,0-.1,0-.2,0-.5-.2-.9-.3-1.4,0,0,0-.1,0-.2-.1-.4-.3-.9-.4-1.3,0,0,0-.1,0-.2-.2-.4-.3-.8-.5-1.2,0,0,0,0,0-.1-.2-.4-.4-.8-.6-1.2,0,0,0,0,0,0-.2-.4-.5-.7-.8-1.1-.3.3-.7.5-1,.8,0,0,0,0-.1.1-.3.3-.6.5-.9.8,0,0-.1.1-.2.2-.3.3-.6.6-.9.9,0,0,0,0-.1.1-.6.6-1.1,1.2-1.6,1.9,0,0,0,0-.1.1-.2.3-.5.6-.7.9,0,0,0,.1-.1.2-.2.3-.4.6-.6,1,0,0,0,0,0,.1-.4.7-.7,1.4-.9,2.1,0,0,0,0,0,.1-.1.3-.2.7-.3,1,0,0,0,.1,0,.2,0,.4-.1.7-.1,1.1,0,0,0,0,0,.1,0,.7,0,1.5.1,2.3,0,0,0,0,0,.1,0,.4.2.7.3,1.1,0,0,0,.1,0,.2.1.4.3.7.5,1.1,0,0,0,0,0,.1.2.4.4.8.7,1.2-2.3-1.7-4.9-3.4-7.7-5.1,9.5-6.6,4.7-13.2,2.1-19.7-9.8,5.7-7.2,14.5-4.2,18.4-2.7-1.6-5.6-3.2-8.4-4.7,0,0,.2,0,.3,0,3.8-5.4,5.8-10.6-2.5-19.1-8,6.4-3.6,15,.2,18-2.8-1.4-5.5-2.6-8.1-3.7,3.7-6.4,2.6-11.6-5-18.3-4.2,6.7-3.1,13.9,1.9,17-2.1-.8-4.1-1.4-5.9-1.9-.6-6.4-11.2-9.1-16.3-3.4,5.5,7.7,11.8,8.3,16,4.5,2,.5,4.2,1.2,6.4,2-4.9-.4-13.3,4-11.9,11.1,5.5,1.1,11.1,1.1,14.4-10.1,2.7,1.1,5.5,2.4,8.3,3.9-4.8-.6-13.5,4.7-13,12.5,4.8-.4,12.6,2.1,15.4-11.2,0,0,0,0,0,0,2.5,1.4,5.1,2.9,7.5,4.4-5.7-1-13.9,4.1-13,13.2,5.9,1.3,12.6-1,15.2-11.8,3.1,2,6.1,4.1,8.8,6.1-9.1-.8-12.7,7.3-13.5,15,6.8.5,16.8-6.2,15.7-13.3,1.8,1.5,3.5,2.9,4.9,4.2l.7-1.6c-1.2-1.3-2.8-2.7-4.7-4.1,3.6-1.4,5.3-5.1,5.6-9.2Z"/>
    <path class="st7" d="M124.5,77.6l-.3-.6c-5.5,2.9-11.2,5.2-17,6.9,3.7-4.5-5.5-13.8-8.9-17.2-.7,4.2,1.4,16.7,6.7,17.9-2.4.7-4.8,1.3-7.2,1.8,4.3-4.5-3.5-15.6-6.9-19.1-.6,4.2-.2,17.8,4.7,19.5-2.7.5-5.4.9-8,1.2,4.6-4.5-4.1-17.9-7.9-21.9-.4,4.6.7,20.2,6,22.1-2.9.2-5.7.3-8.5.3,4.5-4.4-4.2-14.8-8-18.9-.4,4.7,0,16,6.3,18.8-3,0-6-.3-8.9-.6,6.3-3.6-2.9-13.6-6.7-17.6-.4,4.6-.4,14.2,4.4,17.3-2.6-.4-5.1-.9-7.6-1.4,4.6-3.5,0-10.9-3.8-15-1.7,3-2.9,11.3,2,14.6-2.5-.7-5-1.4-7.5-2.3,5.3-3.2.5-11.6-3.3-15.6-1.6,2.9-2.4,11.3,1,14.7-1.8-.7-3.5-1.5-5.2-2.3,5-2.7.7-6.8-2-11.3-1.5,2.7-2.5,7.3-.5,10-.6-.5-1.2-.9-2-1-.1,0-.3-.2-.4-.2.6-4.1-2.9-7.5-10.2-7.4,1.7,3.2,2.5,7.9,7.6,8.1-1.7.7-3.6,2.1-5.7,4.3,4,1.2,9.7,3.2,11.6-2.4,1.8.9,3.7,1.8,5.7,2.6-5.1-.5-8.9,5-10.9,10,3.5.4,15.3-4.3,12.8-9.2,2.1.8,4.3,1.5,6.6,2.2-4.4.3-7.6,6.5-8.8,11.3,3.7-.2,14-5.1,11.2-10.7,2.5.6,5,1.1,7.5,1.6-4.8,1.1-7.7,9.6-9,14.1,4.5-2.2,13.8-7.4,12.2-13.7,2.5.3,5.1.5,7.7.7-5,1.8-7,11-7.2,16,3.8-3.1,13.4-9.4,9.9-15.9.9,0,1.9,0,2.8,0,1.8,0,3.7,0,5.5-.2-5.3,2.3-5.6,17.5-5.2,22.7,3.3-3.8,11.1-16.2,7.2-22.9,3.2-.3,6.3-.7,9.4-1.3-6.9,3-2.5,17.5-1.4,22.2,3.6-4.6,7.2-18.2,2.9-22.4,2.5-.5,5-1.1,7.5-1.8-3.1,3.5.5,17,.4,21.3,3.6-2.9,6.5-17.9,2-22,6-1.8,11.8-4.2,17.3-7Z"/>
    <path class="st8" d="M101,30.4l-.3-4.6c-2.6,1.4-5,2.8-7.1,2.4,1.2,2.2,7.1,7,12.6,7.6l-5.2-5.5Z"/>
    <path class="st1" d="M97.4,94.9c-3.6-6.2-3.9-26.7,14.3-25.6,8.1,17-7.8,14-14.3,25.6h0Z"/>
    <circle class="st0" cx="102.5" cy="83.9" r="4.5"/>
    <circle class="st0" cx="104" cy="74.2" r="3.8"/>
    <path class="st0" d="M112.9,84.8c5.6,10.7-8.4,20.4-13.8,25.3.3-9.1,4.2-27.1,13.8-25.3h0Z"/>
    <path class="st0" d="M124.2,84.4c-8.2.3-16.4-.2-24.3-1.6,9-5.7-1.5-25.9-9.3-28.2-1.2,1.8-2,5.5-2.1,9.7-1.7-4.5-5.1-7.9-7.7-8.7-3.7,4-7.2,16.4,2.4,23.1-3.6-1.2-7-2.5-10.5-4,7.6-8.3,2.7-21.7-4.3-24.8-1,1.9-2.2,5.1-2.8,8.6-1-4-3.5-7.6-6.3-8.6-2.2,4.3-5.4,11.7-1,17.1-.9-.6-1.9-1.2-2.8-1.9,1.1-8.5-5.9-12.1-16.2-12.3,2.7,5.9,1.7,18.8,15.6,13.1.7.5,1.4,1,2.1,1.4-4.7-.9-11,2.4-14.2,9.1,7.8,3.7,17,2.9,18.5-6.4,2.1,1.3,4.3,2.4,6.6,3.6-7.5-1.2-14.4,6-15.2,15.4,9.8,1.8,21.9-6,18.2-14,2.7,1.3,5.5,2.4,8.4,3.5-6.6.7-11.1,9.1-10,18.2,8.4-.1,19.7-7.3,16-16.2,2.6.8,5.3,1.5,8,2.1-7.3,1.8-13.5,12.2-10.9,22.1,11.9-.4,19.4-10.8,17.3-20.8,5.7,1,11.5,1.5,17.5,1.6,2.4,0,4.7,0,7.1,0v-1ZM89.3,72.2c1.1,4,3.1,7.7,6.7,9.9-3.4-.7-6.8-1.6-10.2-2.6,2-2.4,3.1-4.9,3.5-7.3ZM65.4,65.7c.4,2.7,1.4,5.2,3.3,7.2-2.2-1.1-4.3-2.2-6.4-3.4,1.5-.9,2.5-2.3,3.1-3.8Z"/>
    <g>
      <path class="st10" d="M116.6,58.1l-.9-3.1c-1.1.4-1.4.7-1.4.7,0,0,1,.9,2.2,2.4Z"/>
      <path class="st10" d="M111.9,104.1c3,2.6,10.2,5.7,10.2,5.7,0,0,1.7,0,3-6.2,1.3-6.2,2-14.1,3.9-13.3,1.9.8,6.5,6.8-4.1,16,1.3.7,2.4,1.3,3.4,1.6l8.6-7.5,2.1-2.3c-.3-.9-.7-1.9-1.3-2.9-1.8-3.3.7-6.8,3-.2.1.3.2.6.3.9l4.6-4.9c-1.7-3.7-4.2-5.8-4.2-5.8,0,0,0,0,0,0l-10.9-9.8-9.5-9c.9,2.6,1.1,4.6.4,5-1,.6-2.7-1.1-3.9-4.7-1.2-3.6-1.8-7.4-2.3-8.7-2.7-.2-8.4,1.6-12.7,3,1.9,1,4.6,2.8,6.2,5.8,2.3,4.4,3.4,7.7,2.7,8-1,.4-1.8-1.6-3.7-5.5-2.1-4.2-3.5-5.2-7.5-6.6-3.1,2.4-5.4,5-5.4,5,0,0,3.3-.6,5.7,1.4,2.4,2.1,3.6,4.3,3.2,5-.4.4-1.9.7-3.9-1.5-2.1-2.4-5-3.1-5.4-3.5-4,2.5-4.1,7.2-7.4,9.1,4.2,2.8,3.6,6.2,5.7,10.3,4.6-1.5,8-9.1,11.1-8,0,0,2.8,4.5-8.9,9.5,1.5,1.7,4.9,5.4,5.8,5.5,6.4-3.3,9.8-12.9,12-12.2,2.2.7.7,6.1-11,13.3,3.8,3.8,7.7,5.9,7.6,5.6,8-5.5,9.8-15.8,11.5-13.8.8,3.3-5.6,13.5-9.1,15.8ZM129.3,85.1c.9-2.3,2.5-2.2,3.2-1.9.8.3,2.1,1.7,1.2,3.1-.9,1.4-2.9,1.9-3.8,1.4-.9-.5-1-1.6-.6-2.6ZM121.7,83.3c.5-2.2,2.5-2.2,3.1-1.9.6.3,1.8,1.6.9,3.1-.8,1.5-2,1.6-2.4,1.5-.5-.1-2-.6-1.6-2.7Z"/>
    </g>
    <g>
      <path class="st10" d="M129.1,94.7c5.4-.7,10.5-4.5,14.3-7.2l-6.1-5.5c-1.9,1.6-5.7,3.1-12.8,3.6,1.1,2.7,3.6,8.6,4.7,9Z"/>
      <path class="st10" d="M146.4,90.3h0c-2.9,2.1-8.2,4.4-16.6,6.2,1.3,2.6,2.7,4.9,3.9,6.6l2.9-2.5,9.7-10.3Z"/>
      <path class="st10" d="M122.4,83c3.7.1,7.8-2.5,11.2-4.2l-3-2.7-9-8.4c-.5.2-1,.4-1.6.5,3.9,5.1,1.7,9,2.5,14.8Z"/>
    </g>
    <path class="st2" d="M119,148.4l1.5-11.5c-12-5.8-24.9,6.7-27.2,13.5,5-.8,16.4,6.7,25.6,2.4v-4.4Z"/>
    <path class="st9" d="M121.8,126.2l1.4-13.8,8.6-7.5c.8-3.1,4.1-6.1,2.9-10.1-1.4-5-7-11.8-16.9-11.3,4.6,5.2,8.4,9.7,6.7,10.6-1.7.9-2.6-1.2-5.2-5.7-2.3-3.9-6.2-5.4-6.2-5.4,0,0-4.6.1-7.5,1.7-2.9,1.6-3.7,3.9-3.7,3.9,0,0,7.2.9,10,2.7,2.8,1.7,7.9,5.2,6.5,7.4-1.5,2.2-3.5.8-8.3-3.3-4.8-4.1-9.2-6.6-12.9-5.6-3.8,1-6.9,8.1-6.9,8.1,0,0,8.1.3,11.3,1.8,3.2,1.4,6.5,3.2,6,4.9-.5,1.6-2,.4-4.8-.9-2.7-1.3-9.6-3.9-13.7-2.2-4,1.7-5,8.6-5,8.6,0,0,6.4,0,8.6,0,2.2,0,7.7-.4,7.9,2,.2,2.3-3.6,3.2-6.4,2.3-2.8-1-6.9-2.7-9.9-1.6-3,1.1-3.4,7.2-3.4,7.2,0,0,5.7-1.4,7.9-1.1,2.2.3,4.9.3,5,1.8.1,1.5-2.6,1.8-4.9,1.6-2.4-.2-5.6-.4-8.2.7.1,4.6-1.1,9.2-1.1,9.2,0,0,2.4,1.1,3.4,2.2,1,1.2,3.9,2.1,4.7,1.8.9-.3,1-1.9,2.4-3.9,1.4-2,3.8-4.5,4.6-4.3.8.3,1,1.9-.8,4.3-1.8,2.4-4.2,5.2-5.2,5.4,4.3,1.5,5.5,2.2,7,1.2,1.4-.9,2.5-2.8,2.9-5.3.5-2.6,1.6-6.1,3-6.8,1.4-.7,3.4-.5,2.1,3.5-1,3-1.3,5.8-2.8,7.7-1.4,1.9-4.6,3.7-4.6,3.7,0,0,7.8,3.3,10.2,1.7,2.4-1.5,3.4-3.8,4.1-7.7.7-3.9-.6-12.4,1.4-12.5,2,0,4.4,3.1,4.7,5.4.4,2.3-.6,8.3-1.4,10.7-.8,2.3-2.8,4.3-2.8,4.3,0,0,3.9.5,6.7,0l2.2-17.4Z"/>
    <path class="st10" d="M140.3,96.8c-.7-.3-1.4-.5-2.2-.6-1.8,1.5-2.4,3.2-2.3,5.1l1-.9,3.4-3.6Z"/>
    <path class="st0" d="M89.3,43.2c5,7.6,28.7,2.1,20.9,24.3-18.7,8.3-22.6-18.4-20.9-24.3h0Z"/>
    <path class="st10" d="M143.2,86.6c-.6,2,0,4,1.1,6l2.6-2.7-3.6-3.3Z"/>
    <path class="st10" d="M111,138.7c2.5,2.4,1.8,8.1,10.5,8.2.3-7.7-7.2-8.1-10.5-8.2h0Z"/>
    <g>
      <path class="st10" d="M140.8,96.4l4-4.2c-2.5.4-5.2,1.3-8,2.6,1.3.4,2.6,1,4,1.6Z"/>
      <path class="st10" d="M137,100.5l1.5-1.6c-2.6-1.4-3.9-1.7-4.2-1.5-5.3,4.2-7.5,10.5-8.3,12.7l11-9.6Z"/>
    </g>
    <path class="st10" d="M125.7,110.2l11.2-9.8c-6.6,2.5-9.8,6-11.2,9.8Z"/>
    <path class="st10" d="M122.9,115.6c-6.1,7.3-1.1,16.6-3.2,22.7.2,0,.4-.1.6-.2l1.5-11.9,1.1-10.6Z"/>
    <path class="st10" d="M121.8,126.2l.8-7.3c-.7-.2-1.4-.2-2.2-.1-4,4-2.6,9.2.6,13.9l.8-6.5Z"/>
    <path class="st10" d="M118.9,152c-.6.1-1.2.3-1.8.6.3,2.1.9,3.7,1.7,4.9v-5.5Z"/>
    <path class="st8" d="M124.1,69.1l-5.9-5.6h0c-1.4,2.2-2.4,4.2-3.5,4.7,1.3,0,5.1,1.8,9.4.9Z"/>
    <path class="st10" d="M115.8,55.3c-.8,3.4-1.4,6.5-2.3,7.7,1.2.2,2.8.1,4.4-.3l-2.1-7.4Z"/>
    <path class="st6" d="M100.2,19.3c-2.8.3-5.3,1.2-6.8,2.2,1.9,1.4,4.1,5.9,7.6,9l-.8-11.2Z"/>
    <path class="st10" d="M125,70l-3.6-3.4c-9.6-3.3-15.7,3.9-16,7.1,1.6,2.6,14.2,8.2,19.7-3.7Z"/>
    <path class="st10" d="M116.9,59.1c-.4-.7-.8-1.4-1.2-2-1.2-2.1-6.2-7.1-8.6-8.5,1.7,1.8,6.2,8.9,7.3,11.2.6,1.3,2.4,2.5,3.5,2.9l-1-3.6Z"/>
    <path class="st0" d="M118.2,79.8c-.6-2.3,1-7.8,5.9-10.6l-.2-.2c-7.5-1.5-14.8,5.8-16.3,10,3.7,0,12.2,5.6,18.7,1.5-3.5.8-7,.2-8.1-.6Z"/>
    <path class="st10" d="M99.6,16c-2.1-.2-4.7-.4-7.7-.5,0,0,0,0,0,0,0,0,0,0,0,0,0,0,0,0,0,0,0,0,0,0,0,0-2.2,3.8-2.5,8.6,2.9,13.9,3-1,4.8-2.4,5.7-4.1l-.7-9.2c-.2,0-.3,0-.3,0Z"/>
    <path class="st10" d="M170.4,97.3h0c-.2-2.1-.8-3.5-1.5-4.6-1.9-2.7-4.8-3.2-5-6.1,0,0,0,0,0,0,0-1,1-2.3,2.1-3,.9-.6,2.2-1.1,2.9-2.6.2-.4.3-.9.2-1.5,0-1.1-1-1.7-2.2-1.9-1-.2-1.8-.2-2.9-.2-1.8,0-3.4-.1-4.7-.2-.4-.6.6-1.6,2.2-4,2.1-3.1,1.7-4.5,1.3-5.3-.3-.7-1.6-1.7-4.5-2-2.2-.2-3.5-.8-4.1-1.7-.1-.2-.2-.4-.3-.6-.3-1.2.9-2.7,1.5-3.6.6-.9,1.5-3.3.5-5.2-.6-1.1-1.7-1.7-3.2-2.2-2.4-.8-5.9-1.5-10.2-4-3.1-1.9-5.7-3.3-7.7-4.6-1.3-.9-2.4-1.6-3.1-2.4,0,0,0,0-.1-.1,0,0-.8-.6-.8-.6l-2-3.5.4-4.7s0-.4,0-.4c0,0,0-.1-.1-.2,0,0-.1-.1-.1-.1l-13.6-8.9-8-4.7-2.4-1.1s-5-1.2-5.1-1.2c-2.1-.2-4.7-.4-7.7-.5-.7,1.2-1.2,2.6-1.4,4-.4,2.7.4,5.7,3.3,8.9,0,0,.2.2.2.2-1.9-.4-3.8-.8-5.6-1,2.3-5.2,1.1-9.4-1.5-12.2-2.9,0-5.9.1-9.1.3,1.1,4.3.5,9.5,5,11.4-1.4,0-2.7,0-4,0-3.5-11.9-17.3-6.7-20.1-1.2,4.5,1.3,11.6,12.2,20.4,2.1,0,0,0-.1,0-.2,1.6,0,3.2,0,4.8.1-5.6,1.3-8.2,6.2-8.4,10.6-.8-1-1.6-1.9-2.3-2.5,1,1.9,1.5,3.5,2.5,5.6.3,1.2.7,2.3,1.3,3.1,0,0,.2,0,.2,0,0,0,0,0,0,.1.8,1.5,2.4,3.4,3.3,4.2,0,0,0,0,0,0-.9-.9-2.8-2.4-4-3.6-3.5-3.3-8-6.4-11.2-8,2.7,2.8,3.9,4.8,8.6,8.8,1,.9,2.6,1.8,3.9,2.4-3.9-1.4-7.5-2.4-10.4-2.9,3.4,1.9,4.9,3.1,10.7,5.3,2.4.9,6.3,1.5,7.6,1.5,1.1.6,2.2,1.2,3.4,1.8-1.3-.4-2.7-.7-3.9-.9-7-1.2-11.5-2-15.9-2.3,4.5,1.6,6.3,3.4,13.4,5.1.4,0,.8.2,1.2.2-4.7,1.1-6.8,2.3-10.3,3.3,4.8,0,5.6-.2,12.8-1,3.1-.3,7.2-1.2,8.3-1.8,1.2.5,2.4,1,3.5,1.5-1.6-.2-3.4-.3-4.8,0-7,1.3-7.8,1-11.9,1.8,4.6.5,7.7,1.4,11.4,1.1.6,0,1.2-.1,1.8-.2-4.5,1.5-6.8,2.1-10.4,3.5,4.7-.2,8.3-.3,12.1-1,3.1-.5,7.1-2.3,7.9-3.1.3,0,.5.2.8.2,1,.3,2.1.6,3.2.8-1.7,0-4.7.5-6.7,1.1-4.6,1.2-7.2,2.1-11,3,4.6.3,7.6.5,11.3-.1,3.4-.6,7.3-2.9,7.7-3.6,1.7.4,3.3.7,4.8.9-1.2.2-2.8.7-4.3,1.2-4.4,1.4-6.6,3.1-10.3,5,4.6-.2,5.9-.7,9.5-1.7,3-.8,6.2-3.2,7.1-4.1,0,0,0,0,0,0l-.2,2.4c-1.5,1.2-2.7,2.3-4.9,4.8,3.7-1.7,3.1-1.3,5.9-3,.3-.2.6-.4.9-.6l3.2.2,11.6,10.9c-2.6,1.7-4.9,3.4-7.4,3.9,3,2.5,7.8,6.4,13.3,7.8-1.1.7-2.1,1.6-3,2.5-.2,0-.3,0-.5,0-5.7-3.8-19.4.4-25.6,2.4,2.6,1.3,6.5,3,10.7,4.2-.7.9-1.4,1.9-2,2.9-3.9.1-7.9,1-11.1,2,2.3,2.6,8.2,6.2,14,6.9-1.1.6-2.1,1.3-3,2-5.1-3-14.5-1.9-20.2,0,2.1,2.4,7.9,5.7,13.4,6.9-.3.3-.7.6-1,.9-3.6-2-10-.4-15.5.2,3,3.4,10.2,7.5,15.5,6.2-1.1.8-2.2,1.6-3.4,2.4-5.4-2.9-12.7,1.1-16.4,10.1,6.1-.4,14.8,0,16.7-9.1.7-.5,1.4-1,2-1.4-2,3.5-1,9.4,3.2,15.6.3-.4.6-.9.9-1.4,0,.7,0,1.4,0,2.1-1.9-.9-4-1.2-5.3-.8.9.9,1.4,4.1,2.6,6.6-2.2-1.4-5.2-1.6-6.7-1.7-.7,1.9.1,5.3,2.2,7.5-3.6-1.1-8.4,1-9.6,2.3,1.8,2.4,5.1,5.2,8.5,4.9-.4.2-.7.5-1.1.7-7.3-4.1-9.3,7.7-9.9,9,2-.4,12.1.4,10.5-8.3.2-.1.5-.3.7-.4-.5,3.7,2.6,8.5,2.9,9.5,1.2-1.7,9-7.9,2.1-13.2,1-.9,2-1.8,2.9-2.7-2.3,6.8,4.1,8.9,7,9.8,1.8-2.3,1.4-7.5-2.1-9.7.2,0,.3-.1.5-.2v-.3c1.1,1.7,2.5,2.7,3.8,3.1,0,0,.3,0,.3,0,0-7.2,2-22.3,8.8-40,1-2.7,2.7-5.6,6-7.9.3-.2.5-.4.8-.6.5-.3,1.1-.7,1.7-1,.3-.2.6-.3,1-.5,1.8-.8,3.8-1.6,6.3-2.1.5-.1.9-.2,1.4-.3,2.1-.5,4-.9,5.9-1.3.4,0,1.8-1.3,1.8-1.3l8.7-2.2,3.4-1.8s.7-.6.9-.9c.6-.9.9-2,.8-3.3ZM94.1,29.4c-2.5,1.2-3.8,2.8-4.5,4.5.1-1.6-.2-3.4-.9-5.5,1.8.3,3.6.6,5.5,1ZM81.4,49.4c0,0-.1,0-.2-.1,0-.5-1.2-3-1.9-4.6,0-.2-.2-.4-.3-.6.3,0,.5-.2.8-.3.5,1.2,1.1,2.5,2,4,.8,1.4,2,2.8,3,3.7-1.6-.9-2.8-1.6-3.4-2ZM86.3,52.2c0-.7-1-3.1-1.8-4.8-.7-1.4-1.6-2.9-2.5-4.4.6-.3,1.2-.5,1.8-.9,1.7,2.7,2.9,5.7,4.9,9.5.5.9,1.7,2.2,2.7,3.1-1.8-.9-3.5-1.7-4.9-2.5ZM93.5,46.2s.3.6.9,2c.9,2.2,1.7,4.5,3.4,6.9.8,1.2,2.5,3.1,3.4,3.8-1-.4-2-.7-3-1.1,0-.7-.8-3.2-1.8-4.8-.8-1.2-2-2.8-3.3-4.3,0,0-1.3-1.6-1.5-1.7-.7-.7-1.4-1.6-1.4-1.6-1.2-1.3-2.4-2.5-3.1-3.1,1.1,1.5,2.2,3.2,3.4,5,.3.6.7,1.1,1,1.6.9,1.6,1.9,3.2,2.8,5.1.6,1.1,2,2.6,2.9,3.4-1-.4-1.9-.8-2.7-1.1-.6-.3-1.1-.5-1.7-.8,0-.8-.9-3.1-1.8-4.8-1.6-2.7-4.6-6.4-6.9-8.8,2.1-1.2,3.9-2.9,4.8-5.2-.2,2.4.4,4.9.9,7.2.5.6,1.1,1,1.6,1.3.8.5,2,1,2,1ZM99.8,60.1c.6-.2,1.1-.4,1.4-.5.4.2.8.3,1.2.4-.8,0-1.7,0-2.6,0ZM114.3,62.3c0-.5-1.7-2.9-3-4.5-1.9-2.3-5.4-6.1-7.8-7.5,1.7,1.8,4.7,6.9,6.1,9,.7,1.1,2.7,2.3,3.8,2.9-1.1-.2-2.3-.5-3.5-.7-.2-.8-1.4-3.1-2.4-4.7-1.6-2.5-4.8-7.1-7-8.8,1.5,2,2.8,6.4,5,9.8.7,1.1,2.5,2.7,3.6,3.5-.8-.2-1.6-.4-2.4-.6,0-.6-1.5-3.1-2.6-4.8-1.6-2.5-4.7-5.8-7.1-7.3,2.9,2.8,4.3,5.4,5.5,8.6.4,1.2,2.2,2.6,3.3,3.3,0,0,0,0-.1,0-1.1-.3-2.5-.8-3.9-1.2.1-.5-1-3-1.8-5-.7-1.6-2.5-4.2-4.3-6.4-.2-.3-.8-.9-.8-.9,0,0,1,.3,1.5.4,3.7-2.6,5.7-7.7,4.5-12,4.9,4.7,10.7,10.2,10.6,10.2h.1s5,17.1,5,17.1v.2c-.6-.1-1.3-.2-2.1-.4Z"/>
    <path class="st4" d="M107.6,28.7c3.5,3.6,6.4,4.2,7.6,4.1,1.2,0,2.3-.9,5.9-1.2,3.4-.3,7.1-.3,7.7.4-.3-.9-1.5-2.2-2.9-3.5-5.3-5-16.2-11.5-25.6-12.5-1.4-.2-3-.2-5-.3,5.9.7,10.3,1.8,11.1,2.8,1.9,2.3-3.4,5.7,1.1,10.2h0Z"/>
    <path class="st4" d="M131.5,41.5c-.8-.9-1.3-2.8-1.6-4.6-.2-1.1-.3-2.3-.5-3.3-.1-.5-.3-1.1-.5-1.4,0,2.4-6.7.8-7.2,1.8-.5.9,1.3,3,4.9,6.9,1.4,1.6,7.3,6.2,8.8,5.5,1.5-.8-4.8-4.1-3.9-4.9h0Z"/>
    <path class="st4" d="M169.7,100.5c-4.9,4.7-24.2,5-32.5,7.4-11.3,3.3-15.9,9.1-13.1,11.1,2.7,1.9,7.6-6.7,17.8-10.1,4.9-1.6,9.3-2.1,12.8-2.1,7.4-1.5,13.2-3.2,14.9-6.3h0Z"/>
    <path class="st4" d="M138,48.1c-4-.2-1.7,4.5-4.3,6.4-2.8,2.1-7.3,0-7.7,1.5-.3.9,1.9,2.1,6.2,2.3,3.8.2,7.9,1.7,11.3,4.9,3.5,3.2,5,5.8,5.7,5.7.7-.1.7-3.5-1.7-6.5-2.4-3-4-3.9-4.4-7.5-.4-3.6-2.6-6.7-5.1-6.8h0Z"/>
    <path class="st4" d="M153.6,56.5c1.4.4.4,1.9-1.1,2.8-1.5.8-2.4,3.3-3,3.3s-.5-1.9.8-3.8c1.4-1.8,2.4-2.6,3.3-2.4h0Z"/>
    <path class="st9" d="M101.6,42.8c0-.9.7-2.1,1.6-3.3-1-1-2-2.1-2.9-3.2-3,1.6-5.3,4.3-6,6.2.6,1.2,5.6,3.6,10.3,2.5-1.5-.7-2.6-1.5-3-2.2Z"/>
  </g>
</svg>